<?xml version="1.0" encoding="UTF-8" standalone="no"?>
<!-- Created with Inkscape (http://www.inkscape.org/) -->

<svg
   xmlns:dc="http://purl.org/dc/elements/1.1/"
   xmlns:cc="http://creativecommons.org/ns#"
   xmlns:rdf="http://www.w3.org/1999/02/22-rdf-syntax-ns#"
   xmlns:svg="http://www.w3.org/2000/svg"
   xmlns="http://www.w3.org/2000/svg"
   xmlns:xlink="http://www.w3.org/1999/xlink"
   version="1.1"
   width="32"
   height="32"
   id="svg6109">
  <defs
     id="defs6111">
    <linearGradient
       id="linearGradient5886">
      <stop
         id="stop5888"
         style="stop-color:#4c4c4c;stop-opacity:1"
         offset="0" />
      <stop
         id="stop5890"
         style="stop-color:#000000;stop-opacity:1"
         offset="1" />
    </linearGradient>
    <linearGradient
       id="linearGradient5820">
      <stop
         id="stop5822"
         style="stop-color:#8f8f8f;stop-opacity:1"
         offset="0" />
      <stop
         id="stop5824"
         style="stop-color:#333333;stop-opacity:1"
         offset="1" />
    </linearGradient>
    <linearGradient
       x1="2.9148591"
       y1="13.992948"
       x2="27.91486"
       y2="13.992948"
       id="linearGradient5857"
       xlink:href="#linearGradient5820"
       gradientUnits="userSpaceOnUse"
       gradientTransform="matrix(0,1,-1,0,32.807393,16.085141)" />
    <linearGradient
       x1="2.9148588"
       y1="10.807393"
       x2="27.91486"
       y2="10.807393"
       id="linearGradient5859"
       xlink:href="#linearGradient5886"
       gradientUnits="userSpaceOnUse"
       gradientTransform="matrix(0,1,-1,0,32.807393,16.085141)" />
  </defs>
  <metadata
     id="metadata6114">
    <rdf:RDF>
      <cc:Work
         rdf:about="">
        <dc:format>image/svg+xml</dc:format>
        <dc:type
           rdf:resource="http://purl.org/dc/dcmitype/StillImage" />
        <dc:title></dc:title>
      </cc:Work>
    </rdf:RDF>
  </metadata>
  <g
     transform="translate(0,-16)"
     id="layer1">
    <g
       id="g5866">
      <g
         id="g5862">
        <path
           d="m 15.96875,6.59375 c -2.303636,0.0036 -4.596503,0.1877993 -6.875,0.5 -0.072128,0.00988 -0.1466509,-0.010187 -0.21875,0 0.00587,-2.616e-4 -0.0371,5.228e-4 -0.03125,0 0.00585,-5.228e-4 -0.037071,7.828e-4 -0.03125,0 0.00582,-7.828e-4 -0.06828,0.00104 -0.0625,0 a 0.65987152,0.65987152 0 0 0 -0.15625,0.0625 l -6.1875,3.0625 A 0.65987152,0.65987152 0 0 0 2.25,10.3125 c 0.00421,-0.0036 -0.035309,0.03498 -0.03125,0.03125 0.00211,-0.0018 0.00828,0.02395 0,0.03125 -0.00828,0.0073 -0.03328,0.0019 -0.03125,0 0.00211,-0.0018 0.00828,0.02395 0,0.03125 -0.00828,0.0073 -0.03328,0.0019 -0.03125,0 0.00187,-0.002 0.0073,0.02297 0,0.03125 -0.0073,0.0083 -0.03303,0.0021 -0.03125,0 0.00373,-0.0041 -0.03481,0.03546 -0.03125,0.03125 A 0.65987152,0.65987152 0 0 0 2.0625,10.53125 C 2.0674,10.52405 1.995585,10.60129 2,10.59375 2.00442,10.58625 1.99609,10.66406 2,10.65625 2.00391,10.64845 1.96537,10.69555 1.96875,10.6875 1.97213,10.6794 1.93466,10.75826 1.9375,10.75 a 0.65987152,0.65987152 0 0 0 -0.03125,0.09375 c 0.00104,-0.0058 -7.828e-4,0.06832 0,0.0625 7.828e-4,-0.0058 -5.228e-4,0.0371 0,0.03125 5.228e-4,-0.0059 -2.616e-4,0.03712 0,0.03125 2.616e-4,-0.0059 0,0.03712 0,0.03125 0,-0.0059 2.616e-4,0.06837 0,0.0625 -2.616e-4,-0.0059 5.228e-4,0.0371 0,0.03125 -5.228e-4,-0.0059 7.828e-4,0.03707 0,0.03125 -7.828e-4,-0.0058 0.00104,0.06828 0,0.0625 l 0,4.5625 c 0.00104,-0.0058 -7.828e-4,0.06832 0,0.0625 7.828e-4,-0.0058 -5.228e-4,0.0371 0,0.03125 5.228e-4,-0.0059 -2.616e-4,0.03712 0,0.03125 2.616e-4,-0.0059 0,0.06837 0,0.0625 0,-0.0059 2.616e-4,0.03712 0,0.03125 -2.616e-4,-0.0059 5.228e-4,0.0371 0,0.03125 -5.228e-4,-0.0059 7.828e-4,0.03707 0,0.03125 -7.828e-4,-0.0058 0.00104,0.06828 0,0.0625 A 0.65987152,0.65987152 0 0 0 1.9375,16.1875 C 1.93466,16.1792 1.97213,16.25805 1.96875,16.25 1.96537,16.2419 2.003906,16.28906 2,16.28125 c -0.00391,-0.0078 0.00442,0.07004 0,0.0625 -0.00442,-0.0075 0.067405,0.06973 0.0625,0.0625 a 0.65987152,0.65987152 0 0 0 0.03125,0.0625 C 2.09019,16.46455 2.128733,16.50406 2.125,16.5 l 0.03125,0 c 0.0073,0.0083 0.00187,0.03328 0,0.03125 -0.00373,-0.0041 0.03515,0.0039 0.03125,0 0.00828,0.0073 0.00211,0.03303 0,0.03125 -0.00406,-0.0037 0.035462,0.03481 0.03125,0.03125 a 0.65987152,0.65987152 0 0 0 0.03125,0 0.65987152,0.65987152 0 0 0 0,0.03125 c 0.00104,-0.0058 -7.828e-4,0.06832 0,0.0625 7.828e-4,-0.0058 -5.228e-4,0.0371 0,0.03125 5.228e-4,-0.0058 -2.616e-4,0.03712 0,0.03125 1.308e-4,-0.0029 2.621e-4,0.01949 0,0.03125 9.229e-4,-0.0078 -4.623e-4,0.03904 0,0.03125 0,-0.0059 2.616e-4,0.03712 0,0.03125 -4.631e-4,0.01563 0,0.03515 0,0.03125 -5.228e-4,-0.0058 7.828e-4,0.03707 0,0.03125 4.631e-4,0.01563 2.311e-4,0.03515 0,0.03125 0.00183,0.01162 5.207e-4,0.03414 0,0.03125 a 0.65987152,0.65987152 0 0 0 0.03125,0.09375 l 0.46875,1.78125 -0.03125,0 C 2.71772,18.83855 2.745455,18.8554 2.75,18.875 c 0.00303,0.01307 9.167e-4,0.03465 0,0.03125 -0.00229,-0.0085 0.00286,0.07084 0,0.0625 -0.00286,-0.0083 0.034656,0.07063 0.03125,0.0625 -0.00341,-0.0081 0.035192,0.07038 0.03125,0.0625 -0.00394,-0.0079 0.03571,0.03885 0.03125,0.03125 -0.00446,-0.0076 0.036208,0.06979 0.03125,0.0625 -0.00496,-0.0073 0.036684,0.06944 0.03125,0.0625 -0.00543,-0.0069 0.037135,0.03781 0.03125,0.03125 -0.00356,-0.0042 0.034983,0.03531 0.03125,0.03125 -0.00373,-0.0041 0.03515,0.0039 0.03125,0 -0.0039,-0.0039 0.00406,0.03498 0,0.03125 -0.00406,-0.0037 0.035462,0.03481 0.03125,0.03125 a 0.65987152,0.65987152 0 0 0 0.0625,0.03125 c -0.00723,-0.0049 0.070037,0.06692 0.0625,0.0625 -0.00754,-0.0044 0.070313,0.0039 0.0625,0 C 3.21094,19.46485 3.258054,19.50338 3.25,19.5 3.24195,19.4966 3.320761,19.53409 3.3125,19.53125 a 0.65987152,0.65987152 0 0 0 0.09375,0.03125 c -0.00578,-0.001 0.068321,7.83e-4 0.0625,0 -0.00582,-7.83e-4 0.0371,5.23e-4 0.03125,0 -0.00585,-5.23e-4 0.037118,2.62e-4 0.03125,0 -0.00587,-2.62e-4 0.037123,0 0.03125,0 -0.00587,0 0.068368,-2.62e-4 0.0625,0 0.015629,4.63e-4 0.035154,0 0.03125,0 -0.00585,5.23e-4 0.037071,-7.83e-4 0.03125,0 0.015629,-4.63e-4 0.035147,-2.31e-4 0.03125,0 0.01162,-0.0018 0.03414,-5.21e-4 0.03125,0 a 0.65987152,0.65987152 0 0 0 0.125,-0.03125 l 7.625,-2.0625 0.09375,-0.03125 c -0.006,0.0014 0.03721,-0.0017 0.03125,0 -0.006,0.0017 0.03713,-0.002 0.03125,0 -0.0059,0.002 0.06828,-0.03348 0.0625,-0.03125 -0.0058,0.0022 0.03692,-0.0025 0.03125,0 -0.0057,0.0025 0.03679,-0.03402 0.03125,-0.03125 -0.0055,0.0028 0.03666,-0.03427 0.03125,-0.03125 a 0.65987152,0.65987152 0 0 0 0.125,-0.0625 c -0.0042,0.0036 0.03531,-0.03498 0.03125,-0.03125 l 0,-0.03125 c -0.0039,0.0039 0.03498,-0.0041 0.03125,0 -0.0041,0.0037 0.0039,-0.03515 0,-0.03125 -0.0039,0.0039 0.03498,-0.0041 0.03125,0 -0.0037,0.0041 0.03481,-0.03546 0.03125,-0.03125 a 0.65987152,0.65987152 0 0 0 0.03125,-0.0625 c -0.0049,0.0072 0.06691,-0.07004 0.0625,-0.0625 -0.0044,0.0075 0.0039,-0.07031 0,-0.0625 -0.0039,0.0078 0.03463,-0.0393 0.03125,-0.03125 -0.0034,0.0081 0.03409,-0.07076 0.03125,-0.0625 A 0.65987152,0.65987152 0 0 0 12.25,16.78125 c -10e-4,0.0058 7.83e-4,-0.06832 0,-0.0625 -7.83e-4,0.0058 5.23e-4,-0.0371 0,-0.03125 -5.23e-4,0.0058 2.62e-4,-0.03712 0,-0.03125 -2.62e-4,0.0059 0,-0.03712 0,-0.03125 0,0.0029 2.62e-4,-0.01949 0,-0.03125 -4.62e-4,0.0078 0,-0.07031 0,-0.0625 0,0.0039 4.63e-4,-0.01562 0,-0.03125 3.91e-4,0.0029 0.0018,-0.01963 0,-0.03125 4.62e-4,0.0078 -9.23e-4,-0.039 0,-0.03125 a 0.65987152,0.65987152 0 0 0 -0.03125,-0.09375 l -0.46875,-1.75 c -0.0018,-0.0075 0.003,-0.01818 0,-0.03125 -0.003,-0.01307 -9.17e-4,-0.03465 0,-0.03125 0.0023,0.0085 -0.0029,-0.07084 0,-0.0625 0.0029,0.0083 -0.03466,-0.07063 -0.03125,-0.0625 0.0034,0.0081 -0.03519,-0.07038 -0.03125,-0.0625 0.0039,0.0079 -0.03571,-0.03885 -0.03125,-0.03125 0.0045,0.0076 -0.03621,-0.06979 -0.03125,-0.0625 0.005,0.0073 -0.03668,-0.06944 -0.03125,-0.0625 0.0054,0.0069 -0.03713,-0.03781 -0.03125,-0.03125 0.0036,0.0042 -0.03498,-0.03531 -0.03125,-0.03125 0.0037,0.0041 -0.03515,-0.0039 -0.03125,0 0.0039,0.0039 -0.0041,-0.03498 0,-0.03125 0.0041,0.0037 -0.03546,-0.03481 -0.03125,-0.03125 a 0.65987152,0.65987152 0 0 0 0,-0.125 c -9.23e-4,0.0078 4.62e-4,-0.03904 0,-0.03125 -4.62e-4,0.0078 0,-0.07031 0,-0.0625 L 11.625,12.8125 c 2.805389,-0.607458 5.62416,-0.800053 8.5625,-0.0625 l 0.1875,1.09375 0,0.0625 c 0.0011,0.01222 4.88e-4,0.03477 0,0.03125 -0.0015,-0.01057 0.03356,0.07292 0.03125,0.0625 -0.0012,-0.0052 -0.0055,0.01059 0,0.03125 0.0021,-0.0018 0.0083,0.02395 0,0.03125 -0.0083,0.0073 -0.03328,0.0019 -0.03125,0 0.0021,-0.0018 0.0083,0.02395 0,0.03125 -0.0083,0.0073 -0.03328,0.0019 -0.03125,0 l 0,0.03125 -0.03125,0 c 0.0019,-0.002 0.0073,0.02297 0,0.03125 -0.0073,0.0083 -0.03303,0.0021 -0.03125,0 0.0037,-0.0041 -0.03481,0.03546 -0.03125,0.03125 a 0.65987152,0.65987152 0 0 0 -0.0625,0.125 c 0.003,-0.0054 -0.03402,0.03679 -0.03125,0.03125 0.0028,-0.0055 -0.03375,0.03692 -0.03125,0.03125 0.0025,-0.0057 -0.0022,0.03703 0,0.03125 0.0022,-0.0058 -0.03321,0.06838 -0.03125,0.0625 0.002,-0.0059 -0.0017,0.03721 0,0.03125 0.0017,-0.006 -0.0014,0.03729 0,0.03125 0.0014,-0.006 -0.03236,0.06859 -0.03125,0.0625 0.0011,-0.0061 -8.26e-4,0.03739 0,0.03125 l -0.46875,1.6875 a 0.65987152,0.65987152 0 0 0 -0.03125,0.09375 0.65987152,0.65987152 0 0 0 0,0.0625 c 4.61e-4,-0.0078 0,0.03904 0,0.03125 0,-0.0078 4.61e-4,0.07028 0,0.0625 0,-0.0029 -2.62e-4,0.01949 0,0.03125 2.62e-4,0.01176 1.31e-4,0.03418 0,0.03125 -2.62e-4,-0.0059 5.23e-4,0.0371 0,0.03125 -5.23e-4,-0.0058 7.83e-4,0.03707 0,0.03125 -7.83e-4,-0.0058 0.001,0.06828 0,0.0625 a 0.65987152,0.65987152 0 0 0 0.03125,0.125 c -0.0028,-0.0083 0.03463,0.07055 0.03125,0.0625 -0.0034,-0.0081 0.03516,0.03906 0.03125,0.03125 -0.0039,-0.0078 0.0044,0.07004 0,0.0625 -0.0044,-0.0075 0.06741,0.06973 0.0625,0.0625 a 0.65987152,0.65987152 0 0 0 0.03125,0.0625 c -0.0036,-0.0042 0.03498,0.03531 0.03125,0.03125 -0.0018,-0.0021 0.02395,-0.0083 0.03125,0 0.0073,0.0083 0.0019,0.03328 0,0.03125 -0.002,-0.0019 0.02297,-0.0073 0.03125,0 0.0083,0.0073 0.0021,0.03303 0,0.03125 -0.0041,-0.0037 0.03546,0.03481 0.03125,0.03125 A 0.65987152,0.65987152 0 0 0 20,17.34375 c -0.0054,-0.003 0.03679,0.03402 0.03125,0.03125 -0.0055,-0.0028 0.03692,0.03375 0.03125,0.03125 -0.0057,-0.0025 0.03703,0.0022 0.03125,0 -0.0058,-0.0022 0.06838,0.03321 0.0625,0.03125 -0.0059,-0.002 0.03721,0.0017 0.03125,0 -0.006,-0.0017 0.03729,0.0014 0.03125,0 l 0.09375,0.03125 7.65625,2.0625 a 0.65987152,0.65987152 0 0 0 0.09375,0.03125 c -0.0058,-0.001 0.06832,7.83e-4 0.0625,0 -0.0078,-4.61e-4 0.07029,0 0.0625,0 -0.0078,0 0.03903,-4.61e-4 0.03125,0 0.01176,2.62e-4 0.03419,0 0.03125,0 -0.0059,0 0.03712,-2.62e-4 0.03125,0 -0.0059,2.62e-4 0.0371,-5.23e-4 0.03125,0 -0.0058,5.23e-4 0.03707,-7.83e-4 0.03125,0 -0.0058,7.83e-4 0.06828,-0.001 0.0625,0 -0.0086,0.0017 0.07101,-0.03354 0.0625,-0.03125 -0.0085,0.0023 0.07084,-0.0029 0.0625,0 -0.0083,0.0029 0.07063,-0.03466 0.0625,-0.03125 -0.0081,0.0034 0.07038,-0.03519 0.0625,-0.03125 -0.0079,0.0039 0.03885,-0.03571 0.03125,-0.03125 -0.0076,0.0045 0.06979,-0.03621 0.0625,-0.03125 -0.0073,0.005 0.06944,-0.03668 0.0625,-0.03125 -0.0069,0.0054 0.03781,-0.03713 0.03125,-0.03125 -0.0042,0.0036 0.03531,-0.03498 0.03125,-0.03125 -0.0041,0.0037 0.0039,-0.03515 0,-0.03125 -0.0039,0.0039 0.03498,-0.0041 0.03125,0 -0.0037,0.0041 0.03481,-0.03546 0.03125,-0.03125 A 0.65987152,0.65987152 0 0 0 29,19.125 c -0.003,0.0054 0.03402,-0.03679 0.03125,-0.03125 -0.0028,0.0055 0.03375,-0.03692 0.03125,-0.03125 -0.0025,0.0057 0.0022,-0.03703 0,-0.03125 -0.0022,0.0058 0.03321,-0.06838 0.03125,-0.0625 -0.002,0.0059 0.0017,-0.03721 0,-0.03125 -0.0017,0.006 0.0014,-0.03729 0,-0.03125 -5.59e-4,0.0024 -0.0019,-0.02201 0,-0.03125 0.0029,-0.01385 0.03192,-0.03491 0.03125,-0.03125 -0.0011,0.0061 8.26e-4,-0.03739 0,-0.03125 l 0.4375,-1.75 a 0.65987152,0.65987152 0 0 0 0.03125,-0.09375 c -5.21e-4,0.0029 -0.0018,-0.01963 0,-0.03125 -2.31e-4,0.0039 -4.63e-4,-0.01562 0,-0.03125 -7.83e-4,0.0058 5.23e-4,-0.0371 0,-0.03125 0,0.0039 4.63e-4,-0.01562 0,-0.03125 -2.62e-4,0.0059 0,-0.03712 0,-0.03125 0,0.0029 2.62e-4,-0.01949 0,-0.03125 -2.62e-4,-0.01176 -1.31e-4,-0.03418 0,-0.03125 2.62e-4,0.0059 -5.23e-4,-0.0371 0,-0.03125 5.23e-4,0.0058 -7.83e-4,-0.03707 0,-0.03125 7.83e-4,0.0058 -0.001,-0.06828 0,-0.0625 a 0.65987152,0.65987152 0 0 0 0,-0.03125 c -0.0069,0.0054 0.03781,-0.03713 0.03125,-0.03125 -0.0042,0.0036 0.03531,-0.03498 0.03125,-0.03125 -0.0041,0.0037 0.0039,-0.03515 0,-0.03125 -0.0039,0.0039 0.03498,-0.0041 0.03125,0 -0.0037,0.0041 0.03481,-0.03546 0.03125,-0.03125 a 0.65987152,0.65987152 0 0 0 0.09375,-0.125 c -0.0038,0.0072 0.0034,-0.06987 0,-0.0625 -0.0034,0.0074 0.03417,-0.03882 0.03125,-0.03125 -0.0029,0.0076 0.0337,-0.07023 0.03125,-0.0625 -0.0024,0.0077 0.002,-0.07037 0,-0.0625 -0.002,0.0079 0.03273,-0.07047 0.03125,-0.0625 -0.0015,0.008 9.86e-4,-0.0393 0,-0.03125 -9.86e-4,0.0081 4.89e-4,-0.0706 0,-0.0625 -2.45e-4,0.004 -4.81e-4,-0.01501 0,-0.03125 4.81e-4,-0.01624 -5e-6,-0.03531 0,-0.03125 4.61e-4,-0.0156 0,-0.03515 0,-0.03125 0,0.0078 -4.61e-4,-0.03903 0,-0.03125 l 0.03125,-4.71875 0,-0.03125 c -2.31e-4,0.0039 -4.63e-4,-0.01562 0,-0.03125 4.63e-4,-0.01563 0,-0.03515 0,-0.03125 0,0.0078 -4.62e-4,-0.07029 0,-0.0625 4.62e-4,0.0078 -9.23e-4,-0.039 0,-0.03125 a 0.65987152,0.65987152 0 0 0 0,-0.03125 c 8.26e-4,0.0061 -0.0011,-0.03734 0,-0.03125 0.0011,0.0061 -0.03265,-0.06854 -0.03125,-0.0625 0.0014,0.006 -0.0017,-0.03721 0,-0.03125 0.0017,0.006 -0.002,-0.03713 0,-0.03125 0.002,0.0059 -0.03348,-0.06828 -0.03125,-0.0625 0.0022,0.0058 -0.0025,-0.03692 0,-0.03125 0.0025,0.0057 -0.03402,-0.03679 -0.03125,-0.03125 0.0028,0.0055 -0.03427,-0.03666 -0.03125,-0.03125 a 0.65987152,0.65987152 0 0 0 -0.0625,-0.125 c 0.0036,0.0042 -0.03498,-0.03531 -0.03125,-0.03125 0.0018,0.0021 -0.02395,0.0083 -0.03125,0 0.0039,0.0039 -0.0041,-0.03498 0,-0.03125 0.0018,0.0021 -0.02395,0.0083 -0.03125,0 0.0039,0.0039 -0.0041,-0.03498 0,-0.03125 0.002,0.0019 -0.02297,0.0073 -0.03125,0 l 0,-0.03125 c 0.0041,0.0037 -0.03546,-0.03481 -0.03125,-0.03125 A 0.65987152,0.65987152 0 0 0 29.4375,10.21875 L 23.6875,7.375 23.65625,7.34375 A 0.65987152,0.65987152 0 0 0 23.625,7.3125 a 0.65987152,0.65987152 0 0 0 -0.03125,0 0.65987152,0.65987152 0 0 0 -0.03125,-0.03125 0.65987152,0.65987152 0 0 0 -0.03125,0 0.65987152,0.65987152 0 0 0 0,-0.03125 c 0.0072,0.0049 -0.07004,-0.066915 -0.0625,-0.0625 0.0075,0.00442 -0.07031,-0.00391 -0.0625,0 C 23.41405,7.19141 23.36695,7.15287 23.375,7.15625 23.3831,7.15963 23.30424,7.12216 23.3125,7.125 A 0.65987152,0.65987152 0 0 0 23.15625,7.09375 c 0.0078,9.229e-4 -0.03904,-4.623e-4 -0.03125,0 -0.05224,-0.00754 -0.104039,0.00737 -0.15625,0 -2.35073,-0.3318015 -4.675098,-0.5036349 -7,-0.5 z"
           transform="matrix(0,1,-1,0,32.807498,16.07812)"
           id="path5745"
           style="fill:#cccccc;fill-opacity:1;fill-rule:nonzero;stroke:none" />
        <path
           d="m 25.307393,32.053891 c -0.0036,-2.333053 -0.173874,-4.660504 -0.5,-6.96875 l -3.0625,-6.173456 -4.8125,-0.01404 2.09375,7.75 1.78125,0.28125 c 0.775038,3.266328 1.020454,6.629704 0,10.15625 l -1.78125,0.28125 -2.09375,7.71875 4.8125,0.01721 3,-6.017206 0.0625,0 c 0.340717,-2.359542 0.503648,-4.698197 0.5,-7.03125 z m -7.28125,-5.09375 -2.0625,-7.71875 -1.8125,0.46875 2.09375,7.71875 z m 0,10.09375 -1.78125,-0.5 -2.09375,7.75 1.8125,0.46875 z"
           id="rect5183"
           style="fill:url(#linearGradient5857);fill-opacity:1;fill-rule:nonzero;stroke:url(#linearGradient5859);stroke-width:0.5;stroke-linecap:round;stroke-linejoin:round;stroke-miterlimit:4;stroke-opacity:1;stroke-dasharray:none" />
      </g>
      <rect
         width="5"
         height="0.66666669"
         x="5.7791686"
         y="20.802963"
         id="rect5751"
         style="fill:#888a85;fill-opacity:1;fill-rule:nonzero;stroke:none" />
      <rect
         width="5"
         height="0.66666669"
         x="5.7791686"
         y="20.136297"
         id="rect5753"
         style="fill:#cccccc;fill-opacity:1;fill-rule:nonzero;stroke:none" />
      <rect
         width="5"
         height="0.66666669"
         x="5.7791686"
         y="21.469631"
         id="rect5755"
         style="fill:#333333;fill-opacity:1;fill-rule:nonzero;stroke:none" />
      <rect
         width="5"
         height="0.66666669"
         x="-0.35588685"
         y="26.070066"
         transform="matrix(0.96592583,-0.25881905,0.25881905,0.96592583,0,0)"
         id="rect5757"
         style="fill:#888a85;fill-opacity:1;fill-rule:nonzero;stroke:none" />
      <rect
         width="5"
         height="0.66666669"
         x="-0.35588685"
         y="25.4034"
         transform="matrix(0.96592583,-0.25881905,0.25881905,0.96592583,0,0)"
         id="rect5759"
         style="fill:#cccccc;fill-opacity:1;fill-rule:nonzero;stroke:none" />
      <rect
         width="5"
         height="0.66666669"
         x="-0.35588685"
         y="26.736734"
         transform="matrix(0.96592583,-0.25881905,0.25881905,0.96592583,0,0)"
         id="rect5761"
         style="fill:#333333;fill-opacity:1;fill-rule:nonzero;stroke:none" />
      <rect
         width="5"
         height="0.66666669"
         x="-7.9687304"
         y="29.838228"
         transform="matrix(0.8660254,-0.5,0.5,0.8660254,0,0)"
         id="rect5763"
         style="fill:#888a85;fill-opacity:1;fill-rule:nonzero;stroke:none" />
      <rect
         width="5"
         height="0.66666669"
         x="-7.9687304"
         y="29.171562"
         transform="matrix(0.8660254,-0.5,0.5,0.8660254,0,0)"
         id="rect5765"
         style="fill:#cccccc;fill-opacity:1;fill-rule:nonzero;stroke:none" />
      <rect
         width="5"
         height="0.66666669"
         x="-7.9687304"
         y="30.504896"
         transform="matrix(0.8660254,-0.5,0.5,0.8660254,0,0)"
         id="rect5767"
         style="fill:#333333;fill-opacity:1;fill-rule:nonzero;stroke:none" />
    </g>
  </g>
</svg>
