<?xml version="1.0" encoding="UTF-8" standalone="no"?>
<!-- Created with Inkscape (http://www.inkscape.org/) -->

<svg
   xmlns:dc="http://purl.org/dc/elements/1.1/"
   xmlns:cc="http://creativecommons.org/ns#"
   xmlns:rdf="http://www.w3.org/1999/02/22-rdf-syntax-ns#"
   xmlns:svg="http://www.w3.org/2000/svg"
   xmlns="http://www.w3.org/2000/svg"
   xmlns:xlink="http://www.w3.org/1999/xlink"
   version="1.1"
   width="32"
   height="32"
   viewBox="0 0 32 32"
   id="svg6109">
  <defs
     id="defs6111">
    <linearGradient
       id="linearGradient4333">
      <stop
         id="stop4335"
         style="stop-color:#204a87;stop-opacity:1"
         offset="0" />
      <stop
         id="stop4337"
         style="stop-color:#3465a4;stop-opacity:1"
         offset="1" />
    </linearGradient>
    <linearGradient
       id="linearGradient4325">
      <stop
         id="stop4327"
         style="stop-color:#3465a4;stop-opacity:1"
         offset="0" />
      <stop
         id="stop4329"
         style="stop-color:#204a87;stop-opacity:1"
         offset="1" />
    </linearGradient>
    <linearGradient
       id="linearGradient4317">
      <stop
         id="stop4319"
         style="stop-color:#729fcf;stop-opacity:1"
         offset="0" />
      <stop
         id="stop4321"
         style="stop-color:#3465a4;stop-opacity:1"
         offset="1" />
    </linearGradient>
    <linearGradient
       id="linearGradient4309">
      <stop
         id="stop4311"
         style="stop-color:#204a87;stop-opacity:1"
         offset="0" />
      <stop
         id="stop4313"
         style="stop-color:#3465a4;stop-opacity:1"
         offset="1" />
    </linearGradient>
    <linearGradient
       id="linearGradient6701">
      <stop
         id="stop6703"
         style="stop-color:#888a85;stop-opacity:1"
         offset="0" />
      <stop
         id="stop6711"
         style="stop-color:#ffffff;stop-opacity:1"
         offset="0.3940554" />
      <stop
         id="stop6709"
         style="stop-color:#d3d7cf;stop-opacity:1"
         offset="0.50576442" />
      <stop
         id="stop6713"
         style="stop-color:#ffffff;stop-opacity:1"
         offset="0.75346696" />
      <stop
         id="stop6705"
         style="stop-color:#babdb6;stop-opacity:1"
         offset="1" />
    </linearGradient>
    <filter
       color-interpolation-filters="sRGB"
       id="filter4582">
      <feGaussianBlur
         stdDeviation="0.0325"
         id="feGaussianBlur4584" />
    </filter>
    <linearGradient
       x1="3.4372621"
       y1="22.111164"
       x2="4.4372621"
       y2="18.111164"
       id="linearGradient4388"
       xlink:href="#linearGradient4325"
       gradientUnits="userSpaceOnUse" />
    <linearGradient
       x1="8.4372625"
       y1="15.127518"
       x2="7.4372625"
       y2="11.127518"
       id="linearGradient4390"
       xlink:href="#linearGradient4333"
       gradientUnits="userSpaceOnUse" />
    <linearGradient
       x1="26.728733"
       y1="14.64744"
       x2="39.870621"
       y2="14.64744"
       id="linearGradient4392"
       xlink:href="#linearGradient6701"
       gradientUnits="userSpaceOnUse" />
    <linearGradient
       x1="26.728733"
       y1="14.64744"
       x2="39.870621"
       y2="14.64744"
       id="linearGradient4394"
       xlink:href="#linearGradient6701"
       gradientUnits="userSpaceOnUse" />
    <linearGradient
       x1="26.728733"
       y1="14.64744"
       x2="39.870621"
       y2="14.64744"
       id="linearGradient4396"
       xlink:href="#linearGradient6701"
       gradientUnits="userSpaceOnUse" />
    <linearGradient
       x1="28.33461"
       y1="11.982127"
       x2="36.467213"
       y2="19.08436"
       id="linearGradient4398"
       xlink:href="#linearGradient6701"
       gradientUnits="userSpaceOnUse" />
    <linearGradient
       x1="26.728733"
       y1="14.64744"
       x2="39.870621"
       y2="14.64744"
       id="linearGradient4400"
       xlink:href="#linearGradient6701"
       gradientUnits="userSpaceOnUse" />
    <linearGradient
       x1="30.390043"
       y1="13.601849"
       x2="39.870621"
       y2="14.64744"
       id="linearGradient4402"
       xlink:href="#linearGradient6701"
       gradientUnits="userSpaceOnUse" />
    <linearGradient
       x1="30.598261"
       y1="19.634827"
       x2="38.94788"
       y2="12.4211"
       id="linearGradient4404"
       xlink:href="#linearGradient6701"
       gradientUnits="userSpaceOnUse" />
    <linearGradient
       x1="8.4372625"
       y1="21.127518"
       x2="11.437263"
       y2="15.127518"
       id="linearGradient4406"
       xlink:href="#linearGradient4309"
       gradientUnits="userSpaceOnUse" />
    <linearGradient
       x1="13.437262"
       y1="16.127518"
       x2="10.437262"
       y2="21.127518"
       id="linearGradient4408"
       xlink:href="#linearGradient4317"
       gradientUnits="userSpaceOnUse" />
    <filter
       x="-0.020746026"
       y="-0.13598865"
       width="1.0414921"
       height="1.2719773"
       color-interpolation-filters="sRGB"
       id="filter5196">
      <feGaussianBlur
         stdDeviation="0.18439971"
         id="feGaussianBlur5198" />
    </filter>
  </defs>
  <metadata
     id="metadata6114">
    <rdf:RDF>
      <cc:Work
         rdf:about="">
        <dc:format>image/svg+xml</dc:format>
        <dc:type
           rdf:resource="http://purl.org/dc/dcmitype/StillImage" />
        <dc:title></dc:title>
      </cc:Work>
    </rdf:RDF>
  </metadata>
  <g
     transform="translate(0,-16)"
     id="layer1">
    <g
       transform="translate(0,2)"
       id="g5270">
      <path
         d="M 16.437262,22.127518 28.225647,23.042872 15.51116,25.381902 6.8927358,23.085195 z"
         transform="matrix(-1,0,0,1,33.437262,13.872482)"
         id="path4564"
         style="fill:#1f314b;fill-opacity:1;fill-rule:nonzero;stroke:none;filter:url(#filter5196)" />
      <path
         d="m 0.4372625,10.127518 10.9999995,-1.016353 1,11 -10,1 z"
         transform="matrix(-1,0,0,-1,17.437262,46.111165)"
         id="path4304"
         style="fill:url(#linearGradient4388);fill-opacity:1;fill-rule:nonzero;stroke:none" />
      <path
         d="m 6.4372625,12.127518 11.9999995,3 -1,9 -8.9999995,-1 z"
         transform="translate(8.5627375,12.872482)"
         id="path4306"
         style="fill:url(#linearGradient4390);fill-opacity:1;fill-rule:nonzero;stroke:none" />
      <path
         d="m 26.437262,19.127518 -10,-1 -12,3"
         transform="matrix(-1,0,0,1,31.437262,6.872482)"
         id="path4827"
         style="fill:none;stroke:#ffffff;stroke-width:0.05;stroke-miterlimit:4;stroke-opacity:1;stroke-dasharray:none;filter:url(#filter4582)" />
      <g
         transform="matrix(1,0,0,0.79466471,0,6.0551203)"
         id="g4818">
        <path
           d="m 28.439081,12.01699 c 3.216653,-1.838162 6.509208,-1.524745 11.431538,-1.558287 -0.229486,4.396382 2.893365,4.077052 0,8.377474 -5.930989,-2.534998 -8.797116,-0.05863 -13.141886,0 1.873048,-2.059717 2.156357,-4.603334 1.710348,-6.819187 z"
           transform="matrix(0.3380274,0,0,0.50206247,-0.82713912,18.607623)"
           id="rect4958"
           style="fill:url(#linearGradient4392);fill-opacity:1;fill-rule:nonzero;stroke:none" />
        <path
           d="m 26.728733,12.278703 c 3.216653,-1.838162 4.003956,1.483004 8.926286,1.449462 2.50234,1.28381 4.367694,1.072323 4.2156,5.108012 -5.930989,-2.534998 -8.797116,-0.05863 -13.141886,0 1.873048,-2.059717 0.446009,-4.341621 0,-6.557474 z"
           transform="matrix(0.23995151,0.1660238,-0.38186081,0.23014441,10.571479,17.045488)"
           id="path4766"
           style="fill:url(#linearGradient4394);fill-opacity:1;fill-rule:nonzero;stroke:none" />
        <path
           d="m 26.728733,12.278703 c 3.216653,-1.838162 8.219556,-1.786458 13.141886,-1.82 -0.229486,4.396382 2.297276,3.669482 -0.596089,7.969904 -7.840799,2.161707 -11.134295,1.680096 -13.135007,-0.631467 1.873048,-2.059717 1.035219,-3.302584 0.58921,-5.518437 z"
           transform="matrix(-0.30353468,-0.0083627,0.12154251,-0.37463727,27.29969,33.642374)"
           id="path4774"
           style="fill:url(#linearGradient4396);fill-opacity:1;fill-rule:nonzero;stroke:none" />
        <path
           d="m 26.728733,12.278703 c 3.216653,-1.838162 8.219556,-1.786458 13.141886,-1.82 -0.229486,4.396382 2.107715,3.122538 -0.78565,7.42296 -4.643912,0.983722 -8.011327,0.896986 -12.356236,0.954514 1.873048,-2.059717 0.446009,-4.341621 0,-6.557474 z"
           transform="matrix(0.00972116,-0.1450394,0.32136887,0.06050847,16.541508,32.225913)"
           id="path4776"
           style="fill:url(#linearGradient4398);fill-opacity:1;fill-rule:nonzero;stroke:none" />
        <path
           d="m 29.351655,14.613963 c 3.216653,-1.838162 4.519035,-4.245185 9.441365,-4.278727 3.011987,3.080754 3.970964,4.200519 1.077599,8.500941 -5.930989,-2.534998 -8.797116,-0.05863 -13.141886,0 1.873048,-2.059717 3.068931,-2.006361 2.622922,-4.222214 z"
           transform="matrix(0.32137978,-0.06532199,0.01038971,0.38845985,4.4253277,22.519213)"
           id="path4770"
           style="fill:url(#linearGradient4400);fill-opacity:1;fill-rule:nonzero;stroke:none" />
        <path
           d="m 29.578365,12.080678 c 3.216653,-1.838162 5.369924,-1.588433 10.292254,-1.621975 -0.229486,4.396382 2.207244,4.882822 -0.686121,9.183244 -5.930989,-2.534998 -7.940544,-1.613984 -12.285314,-1.555354 1.873048,-2.059717 3.12519,-3.790062 2.679181,-6.005915 z"
           transform="matrix(-0.04967512,-0.20119058,0.47952353,0.02436754,10.310512,34.216208)"
           id="path4783"
           style="fill:url(#linearGradient4402);fill-opacity:1;fill-rule:nonzero;stroke:none" />
        <path
           d="m 26.728733,12.278703 c 3.216653,-1.838162 8.40942,-1.297302 13.33175,-1.330844 -0.229486,4.396382 2.703501,3.587896 -0.189864,7.888318 -5.930989,-2.534998 -8.797116,-0.05863 -13.141886,0 1.873048,-2.059717 0.446009,-4.341621 0,-6.557474 z"
           transform="matrix(-0.07538103,-0.20119058,0.72766754,0.02436754,2.1162908,33.110166)"
           id="path4787"
           style="fill:url(#linearGradient4404);fill-opacity:1;fill-rule:nonzero;stroke:none" />
      </g>
      <path
         d="m 4.4372625,12.127518 13.9999995,3 -1,10 -11.9999995,-2 z"
         transform="translate(0.5627375,13.872482)"
         id="rect3513"
         style="fill:url(#linearGradient4406);fill-opacity:1;fill-rule:nonzero;stroke:none" />
      <path
         d="m 6.437262,14.127518 8,1 1,10 -8,-2 z"
         transform="matrix(-1,0,0,1,33.437262,13.872482)"
         id="path4302"
         style="fill:url(#linearGradient4408);fill-opacity:1;fill-rule:nonzero;stroke:none" />
      <g
         transform="matrix(0.03254949,0.00431788,0.00431788,-0.03254949,1.3095481,38.513694)"
         id="g4345"
         style="fill:#ffffff;stroke:#204a87;stroke-width:6.09112883;stroke-miterlimit:4;stroke-opacity:1;stroke-dasharray:none">
        <g
           id="g4347"
           style="fill:#ffffff;stroke:#204a87;stroke-width:6.09112883;stroke-miterlimit:4;stroke-opacity:1;stroke-dasharray:none">
          <path
             d="m 272.4375,132.71875 c -0.0555,0.0189 -0.17907,0.0852 -0.28125,0.1875 l 0.0312,11.6875 c -1.77083,0 -18.54167,0 -20.3125,0 -17.26401,-0.62768 -34.79518,35.7078 -31.77191,47.17756 L 240.5625,227.25 272.3125,208.90625 256.34375,181.25 c 5.24028,0 11.06696,0 15.96875,0 l 0.0625,11.875 c 0.0282,0.0282 0.14501,-0.0511 0.28125,-0.1875 l 20.9375,-30.0625 -21.125,-30.15625 c -0.007,-0.007 -0.0127,-0.006 -0.0312,0 z"
             id="path4349"
             style="fill:#ffffff;fill-opacity:1;stroke:#204a87;stroke-width:6.09112883;stroke-linejoin:round;stroke-miterlimit:4;stroke-opacity:1;stroke-dasharray:none" />
          <path
             d="m 234.09375,181.1875 c -8.58494,-0.17816 -14.98531,4.2882 -13.69242,11.07475 L 240.5625,227.25 272.3125,208.90625 256.34375,181.25 c -6.59387,-0.11919 -15.8789,-0.0644 -22.25,-0.0625 z"
             id="path4351"
             style="fill:#ffffff;fill-opacity:1;stroke:#204a87;stroke-width:6.09112883;stroke-miterlimit:4;stroke-opacity:1;stroke-dasharray:none" />
        </g>
        <g
           transform="matrix(-0.5,-0.8660254,0.8660254,-0.5,265.65734,559.85525)"
           id="g4353"
           style="fill:#ffffff;stroke:#204a87;stroke-width:6.09112883;stroke-miterlimit:4;stroke-opacity:1;stroke-dasharray:none">
          <path
             d="m 272.4375,132.71875 c -0.0555,0.0189 -0.17907,0.0852 -0.28125,0.1875 l 0.0312,11.6875 c -1.77083,0 -18.54167,0 -20.3125,0 -17.26401,-0.62768 -34.79518,35.7078 -31.77191,47.17756 L 240.5625,227.25 272.3125,208.90625 256.34375,181.25 c 5.24028,0 11.06696,0 15.96875,0 l 0.0625,11.875 c 0.0282,0.0282 0.14501,-0.0511 0.28125,-0.1875 l 20.9375,-30.0625 -21.125,-30.15625 c -0.007,-0.007 -0.0127,-0.006 -0.0312,0 z"
             id="path4355"
             style="fill:#ffffff;fill-opacity:1;stroke:#204a87;stroke-width:6.09112883;stroke-linejoin:round;stroke-miterlimit:4;stroke-opacity:1;stroke-dasharray:none" />
          <path
             d="m 234.09375,181.1875 c -8.58494,-0.17816 -14.98531,4.2882 -13.69242,11.07475 L 240.5625,227.25 272.3125,208.90625 256.34375,181.25 c -6.59387,-0.11919 -15.8789,-0.0644 -22.25,-0.0625 z"
             id="path4357"
             style="fill:#ffffff;fill-opacity:1;stroke:#204a87;stroke-width:6.09112883;stroke-miterlimit:4;stroke-opacity:1;stroke-dasharray:none" />
        </g>
        <g
           transform="matrix(-0.5,0.8660254,-0.8660254,-0.5,617.14871,51.26077)"
           id="g4359"
           style="fill:#ffffff;stroke:#204a87;stroke-width:6.09112883;stroke-miterlimit:4;stroke-opacity:1;stroke-dasharray:none">
          <path
             d="m 272.4375,132.71875 c -0.0555,0.0189 -0.17907,0.0852 -0.28125,0.1875 l 0.0312,11.6875 c -1.77083,0 -18.54167,0 -20.3125,0 -17.26401,-0.62768 -34.79518,35.7078 -31.77191,47.17756 L 240.5625,227.25 272.3125,208.90625 256.34375,181.25 c 5.24028,0 11.06696,0 15.96875,0 l 0.0625,11.875 c 0.0282,0.0282 0.14501,-0.0511 0.28125,-0.1875 l 20.9375,-30.0625 -21.125,-30.15625 c -0.007,-0.007 -0.0127,-0.006 -0.0312,0 z"
             id="path4361"
             style="fill:#ffffff;fill-opacity:1;stroke:#204a87;stroke-width:6.09112883;stroke-linejoin:round;stroke-miterlimit:4;stroke-opacity:1;stroke-dasharray:none" />
          <path
             d="m 234.09375,181.1875 c -8.58494,-0.17816 -14.98531,4.2882 -13.69242,11.07475 L 240.5625,227.25 272.3125,208.90625 256.34375,181.25 c -6.59387,-0.11919 -15.8789,-0.0644 -22.25,-0.0625 z"
             id="path4363"
             style="fill:#ffffff;fill-opacity:1;stroke:#204a87;stroke-width:6.09112883;stroke-miterlimit:4;stroke-opacity:1;stroke-dasharray:none" />
        </g>
      </g>
      <path
         d="m 26.437262,19.127518 -14,3 -8,-1"
         transform="matrix(-1,0,0,1,31.437262,6.872482)"
         id="path4566"
         style="fill:none;stroke:#ffffff;stroke-width:0.05;stroke-miterlimit:4;stroke-opacity:1;stroke-dasharray:none;filter:url(#filter4582)" />
    </g>
  </g>
</svg>
