<?xml version="1.0" encoding="UTF-8" standalone="no"?>
<!-- Created with Inkscape (http://www.inkscape.org/) -->

<svg
   xmlns:dc="http://purl.org/dc/elements/1.1/"
   xmlns:cc="http://creativecommons.org/ns#"
   xmlns:rdf="http://www.w3.org/1999/02/22-rdf-syntax-ns#"
   xmlns:svg="http://www.w3.org/2000/svg"
   xmlns="http://www.w3.org/2000/svg"
   xmlns:xlink="http://www.w3.org/1999/xlink"
   version="1.1"
   width="32"
   height="32"
   viewBox="0 0 32 32"
   id="svg6109">
  <defs
     id="defs6111">
    <linearGradient
       id="linearGradient8412">
      <stop
         id="stop8414"
         style="stop-color:#204a87;stop-opacity:1"
         offset="0" />
      <stop
         id="stop8416"
         style="stop-color:#000000;stop-opacity:1"
         offset="1" />
    </linearGradient>
    <linearGradient
       id="linearGradient8406">
      <stop
         id="stop8408"
         style="stop-color:#204a87;stop-opacity:1"
         offset="0" />
      <stop
         id="stop8410"
         style="stop-color:#000000;stop-opacity:1"
         offset="1" />
    </linearGradient>
    <linearGradient
       id="linearGradient8400">
      <stop
         id="stop8402"
         style="stop-color:#729fcf;stop-opacity:1"
         offset="0" />
      <stop
         id="stop8404"
         style="stop-color:#204a87;stop-opacity:1"
         offset="1" />
    </linearGradient>
    <linearGradient
       id="linearGradient8125">
      <stop
         id="stop8127"
         style="stop-color:#555753;stop-opacity:1"
         offset="0" />
      <stop
         id="stop8129"
         style="stop-color:#000000;stop-opacity:1"
         offset="1" />
    </linearGradient>
    <linearGradient
       id="linearGradient8109">
      <stop
         id="stop8111"
         style="stop-color:#555753;stop-opacity:1"
         offset="0" />
      <stop
         id="stop8113"
         style="stop-color:#000000;stop-opacity:1"
         offset="1" />
    </linearGradient>
    <linearGradient
       id="linearGradient4156">
      <stop
         id="stop4158"
         style="stop-color:#3465a4;stop-opacity:1"
         offset="0" />
      <stop
         id="stop4160"
         style="stop-color:#729fcf;stop-opacity:1"
         offset="1" />
    </linearGradient>
    <linearGradient
       id="linearGradient3370">
      <stop
         id="stop3372"
         style="stop-color:#3465a4;stop-opacity:1"
         offset="0" />
      <stop
         id="stop3374"
         style="stop-color:#729fcf;stop-opacity:1"
         offset="1" />
    </linearGradient>
    <linearGradient
       id="linearGradient4183">
      <stop
         id="stop4185"
         style="stop-color:#babdb6;stop-opacity:1"
         offset="0" />
      <stop
         id="stop4187"
         style="stop-color:#000000;stop-opacity:1"
         offset="1" />
    </linearGradient>
    <filter
       color-interpolation-filters="sRGB"
       id="filter16316">
      <feGaussianBlur
         stdDeviation="0.17568014"
         id="feGaussianBlur16318" />
    </filter>
    <linearGradient
       x1="26.862694"
       y1="24.883512"
       x2="27.129721"
       y2="23.173574"
       id="linearGradient21668"
       xlink:href="#linearGradient8109"
       gradientUnits="userSpaceOnUse"
       gradientTransform="matrix(1.6953072,0.10202435,0,1.9199852,-21.5645,-27.670269)"
       spreadMethod="reflect" />
    <radialGradient
       cx="25.829786"
       cy="25.772379"
       r="1.6692848"
       fx="25.829786"
       fy="25.772379"
       id="radialGradient21670"
       xlink:href="#linearGradient8125"
       gradientUnits="userSpaceOnUse"
       gradientTransform="matrix(0.79618603,-0.00457694,4.9867154e-7,1.52889,5.2644584,-13.512531)" />
    <linearGradient
       x1="26.862694"
       y1="24.883512"
       x2="27.129721"
       y2="23.173574"
       id="linearGradient21672"
       xlink:href="#linearGradient8109"
       gradientUnits="userSpaceOnUse"
       gradientTransform="matrix(1.6953072,0.10202435,0,1.9199852,-21.5645,-27.670269)"
       spreadMethod="reflect" />
    <radialGradient
       cx="25.829786"
       cy="25.772379"
       r="1.6692848"
       fx="25.829786"
       fy="25.772379"
       id="radialGradient21674"
       xlink:href="#linearGradient8125"
       gradientUnits="userSpaceOnUse"
       gradientTransform="matrix(0.79618603,-0.00457694,4.9867154e-7,1.52889,5.2644584,-13.512531)" />
    <linearGradient
       x1="16.150593"
       y1="14.977669"
       x2="21.218374"
       y2="14.977669"
       id="linearGradient21676"
       xlink:href="#linearGradient3370"
       gradientUnits="userSpaceOnUse" />
    <linearGradient
       x1="26.862694"
       y1="24.883512"
       x2="27.129721"
       y2="23.173574"
       id="linearGradient21678"
       xlink:href="#linearGradient8109"
       gradientUnits="userSpaceOnUse"
       gradientTransform="matrix(1.6953072,0.10202435,0,1.9199852,-21.5645,-27.670269)"
       spreadMethod="reflect" />
    <radialGradient
       cx="25.829786"
       cy="25.772379"
       r="1.6692848"
       fx="25.829786"
       fy="25.772379"
       id="radialGradient21680"
       xlink:href="#linearGradient8125"
       gradientUnits="userSpaceOnUse"
       gradientTransform="matrix(0.79618603,-0.00457694,4.9867154e-7,1.52889,5.2644584,-13.512531)" />
    <linearGradient
       x1="120.46662"
       y1="82.597023"
       x2="121.5096"
       y2="74.485283"
       id="linearGradient21682"
       xlink:href="#linearGradient4183"
       gradientUnits="userSpaceOnUse" />
    <linearGradient
       x1="105.75364"
       y1="64.433578"
       x2="119.36325"
       y2="64.915459"
       id="linearGradient21684"
       xlink:href="#linearGradient8406"
       gradientUnits="userSpaceOnUse" />
    <linearGradient
       x1="115.63137"
       y1="51.100887"
       x2="118.05585"
       y2="62.987377"
       id="linearGradient21686"
       xlink:href="#linearGradient8412"
       gradientUnits="userSpaceOnUse" />
    <linearGradient
       x1="125.94719"
       y1="66.124962"
       x2="128.23076"
       y2="66.124962"
       id="linearGradient21688"
       xlink:href="#linearGradient8400"
       gradientUnits="userSpaceOnUse" />
    <linearGradient
       x1="6.6342039"
       y1="14.977669"
       x2="21.218374"
       y2="14.977669"
       id="linearGradient21690"
       xlink:href="#linearGradient4156"
       gradientUnits="userSpaceOnUse" />
  </defs>
  <metadata
     id="metadata6114">
    <rdf:RDF>
      <cc:Work
         rdf:about="">
        <dc:format>image/svg+xml</dc:format>
        <dc:type
           rdf:resource="http://purl.org/dc/dcmitype/StillImage" />
        <dc:title></dc:title>
      </cc:Work>
    </rdf:RDF>
  </metadata>
  <g
     transform="translate(0,-16)"
     id="layer1">
    <g
       transform="matrix(0.98508706,0,0,0.98508706,0.10611503,-0.14056625)"
       id="g21618">
      <path
         d="m 15.97089,19.77075 13.684037,-7.374841 c -0.772795,2.015934 -1.29369,2.221847 -1.938914,5.85264 l -0.893347,3.219848 c -2.745668,0.161882 -2.63177,-0.387722 -2.699711,-1.098571 -0.05552,-0.580893 -3.156795,-0.802445 -4.760512,-0.396751 -1.517901,0.383985 0.742004,1.234373 -3.273193,0.609543 z"
         transform="matrix(1.2520876,0,0,1.2520876,-11.65589,15.076606)"
         id="rect8430"
         style="opacity:0.5;fill:#000000;fill-opacity:1;fill-rule:nonzero;stroke:none;filter:url(#filter16316)" />
      <g
         transform="matrix(1.1126728,0,0,1.1126728,-6.4053594,-4.625997)"
         id="g8352">
        <g
           transform="matrix(0.1254184,0,0,0.1254184,38.285616,26.480355)"
           id="g3380">
          <rect
             width="1.2402366"
             height="3.3933349"
             x="26.307941"
             y="23.000196"
             transform="matrix(1.6953072,0,0,1.9199852,-125.82708,-5.9913603)"
             id="rect3382"
             style="fill:#000000;fill-opacity:1;fill-rule:nonzero;stroke:none" />
          <path
             d="m 27.499071,25.772379 a 1.669285,2.9574618 0 1 1 -3.33857,0 1.669285,2.9574618 0 1 1 3.33857,0 z"
             transform="matrix(0.33622834,0,0,1.1014774,-87.809105,13.038558)"
             id="path3384"
             style="fill:#2e3436;fill-opacity:1;fill-rule:nonzero;stroke:none" />
          <path
             d="m 27.499071,25.772379 a 1.669285,2.9574618 0 1 1 -3.33857,0 1.669285,2.9574618 0 1 1 3.33857,0 z"
             transform="matrix(0.33622834,0,0,1.1014774,-89.911802,13.038558)"
             id="path3386"
             style="fill:#000000;fill-opacity:1;fill-rule:nonzero;stroke:none" />
        </g>
        <g
           transform="matrix(0.15778921,0,0,0.18434737,40.665339,24.480274)"
           id="g3390">
          <rect
             width="1.2402366"
             height="3.3933349"
             x="26.307941"
             y="23.000196"
             transform="matrix(1.6953072,0,0,1.9199852,-125.82708,-5.9913603)"
             id="rect3392"
             style="fill:#000000;fill-opacity:1;fill-rule:nonzero;stroke:none" />
          <path
             d="m 27.499071,25.772379 a 1.669285,2.9574618 0 1 1 -3.33857,0 1.669285,2.9574618 0 1 1 3.33857,0 z"
             transform="matrix(0.33622834,0,0,1.1014774,-87.809105,13.038558)"
             id="path3394"
             style="fill:#2e3436;fill-opacity:1;fill-rule:nonzero;stroke:none" />
          <path
             d="m 27.499071,25.772379 a 1.669285,2.9574618 0 1 1 -3.33857,0 1.669285,2.9574618 0 1 1 3.33857,0 z"
             transform="matrix(0.33622834,0,0,1.1014774,-89.911802,13.038558)"
             id="path3396"
             style="fill:#000000;fill-opacity:1;fill-rule:nonzero;stroke:none" />
        </g>
        <g
           transform="translate(-9.3758732,-0.80788559)"
           id="g8215">
          <path
             d="m 23.03125,19.1875 c -0.309976,-0.01865 -0.5625,1.41964 -0.5625,3.21875 0,1.79911 0.252524,3.262596 0.5625,3.28125 l 2.09375,0.125 0,-6.5 -2.09375,-0.125 z"
             transform="translate(0,16)"
             id="path8217"
             style="fill:url(#linearGradient21668);fill-opacity:1;fill-rule:nonzero;stroke:none" />
          <path
             d="m 27.499071,25.772379 a 1.669285,2.9574618 0 1 1 -3.33857,0 1.669285,2.9574618 0 1 1 3.33857,0 z"
             transform="matrix(0.33622834,0.02023437,0,1.1014774,16.453475,9.6475883)"
             id="path8219"
             style="fill:url(#radialGradient21670);fill-opacity:1;fill-rule:nonzero;stroke:none" />
        </g>
        <g
           transform="matrix(0.24997614,0,0,0.24997614,47.757235,22.047533)"
           id="g11125">
          <rect
             width="1.2402366"
             height="3.3933349"
             x="26.307941"
             y="23.000196"
             transform="matrix(1.6953072,0,0,1.9199852,-125.82708,-5.9913603)"
             id="rect11127"
             style="fill:#000000;fill-opacity:1;fill-rule:nonzero;stroke:none" />
          <path
             d="m 27.499071,25.772379 a 1.669285,2.9574618 0 1 1 -3.33857,0 1.669285,2.9574618 0 1 1 3.33857,0 z"
             transform="matrix(0.33622834,0,0,1.1014774,-87.809105,13.038558)"
             id="path11129"
             style="fill:#2e3436;fill-opacity:1;fill-rule:nonzero;stroke:none" />
          <path
             d="m 27.499071,25.772379 a 1.669285,2.9574618 0 1 1 -3.33857,0 1.669285,2.9574618 0 1 1 3.33857,0 z"
             transform="matrix(0.33622834,0,0,1.1014774,-89.911802,13.038558)"
             id="path11131"
             style="fill:#000000;fill-opacity:1;fill-rule:nonzero;stroke:none" />
        </g>
        <path
           d="m 15.160717,20.329895 6.147645,0 0,4.480487 C 19.563733,24.423081 17.653011,24.272745 15.267514,24.799771 15.144839,23.584824 15.004315,22.2451 15.160717,20.329895 z"
           transform="matrix(1.2627119,0.08896077,0,0.89534884,-3.9829004,15.723908)"
           id="rect11055"
           style="fill:#000000;fill-opacity:1;fill-rule:nonzero;stroke:none" />
        <rect
           width="0.74421167"
           height="1.6147807"
           x="16.215986"
           y="19.859085"
           transform="matrix(0.7685142,0,0,1,3.5759834,15.971093)"
           id="rect8348"
           style="fill:#888a85;fill-opacity:1;fill-rule:nonzero;stroke:none" />
        <path
           d="m 27.083601,17.230247 0.65405,0.597948 -0.371144,0.662496 -1.140983,0.274964 z"
           transform="matrix(1.2282402,-2.4846795,0.68808351,0.3991897,-18.757983,94.112945)"
           id="rect3398"
           style="fill:#babdb6;fill-opacity:1;fill-rule:nonzero;stroke:none" />
        <g
           transform="matrix(0.73231094,0,0,0.73231094,7.7769152,8.0117134)"
           id="g8205">
          <path
             d="m 23.03125,19.1875 c -0.309976,-0.01865 -0.5625,1.41964 -0.5625,3.21875 0,1.79911 0.252524,3.262596 0.5625,3.28125 l 2.09375,0.125 0,-6.5 -2.09375,-0.125 z"
             transform="translate(0,16)"
             id="path8207"
             style="fill:url(#linearGradient21672);fill-opacity:1;fill-rule:nonzero;stroke:none" />
          <path
             d="m 27.499071,25.772379 a 1.669285,2.9574618 0 1 1 -3.33857,0 1.669285,2.9574618 0 1 1 3.33857,0 z"
             transform="matrix(0.33622834,0.02023437,0,1.1014774,16.453475,9.6475883)"
             id="path8209"
             style="fill:url(#radialGradient21674);fill-opacity:1;fill-rule:nonzero;stroke:none" />
        </g>
        <path
           d="m 17.241334,11.750689 3.773968,-0.400487 0,7.204271 -3.773968,-0.52569 z"
           transform="matrix(0.11961539,0,0,2.0043782,10.089488,-1.7878804)"
           id="path10612"
           style="fill:url(#linearGradient21676);fill-opacity:1;fill-rule:nonzero;stroke:none" />
        <g
           id="g8201">
          <path
             d="m 23.03125,19.1875 c -0.309976,-0.01865 -0.5625,1.41964 -0.5625,3.21875 0,1.79911 0.252524,3.262596 0.5625,3.28125 l 2.09375,0.125 0,-6.5 -2.09375,-0.125 z"
             transform="translate(0,16)"
             id="rect10936"
             style="fill:url(#linearGradient21678);fill-opacity:1;fill-rule:nonzero;stroke:none" />
          <path
             d="m 27.499071,25.772379 a 1.669285,2.9574618 0 1 1 -3.33857,0 1.669285,2.9574618 0 1 1 3.33857,0 z"
             transform="matrix(0.33622834,0.02023437,0,1.1014774,16.453475,9.6475883)"
             id="path10932"
             style="fill:url(#radialGradient21680);fill-opacity:1;fill-rule:nonzero;stroke:none" />
        </g>
        <rect
           width="0.74421167"
           height="1.6147807"
           x="16.215986"
           y="19.859085"
           transform="matrix(0.8461997,0,0,1,7.6929806,16.115629)"
           id="rect8350"
           style="fill:#888a85;fill-opacity:1;fill-rule:nonzero;stroke:none" />
        <g
           transform="matrix(1,0.01245516,0,1,0.54157198,-0.26456628)"
           id="g3350">
          <rect
             width="12.09895"
             height="0.99030554"
             x="11.96978"
             y="22.053888"
             transform="matrix(1.0020177,0.05453546,0,1.5456831,0.04320742,2.0716878)"
             id="rect10908"
             style="fill:#555753;fill-opacity:1;fill-rule:nonzero;stroke:#888a85;stroke-width:0.07330947;stroke-linecap:round;stroke-linejoin:round;stroke-miterlimit:4;stroke-opacity:1;stroke-dasharray:none" />
          <rect
             width="2.2389517"
             height="0.73196501"
             x="12.615632"
             y="21.451094"
             transform="matrix(1,0.05921055,0,1.1811146,-0.27390406,11.150801)"
             id="rect11133"
             style="fill:#cc0000;fill-opacity:1;fill-rule:nonzero;stroke:#a40000;stroke-width:0.08394829;stroke-miterlimit:4;stroke-opacity:1;stroke-dasharray:none" />
          <rect
             width="2.2389517"
             height="0.73196501"
             x="12.615632"
             y="21.451094"
             transform="matrix(1,0.05921055,0,1.1811146,8.8140481,11.528505)"
             id="rect11171"
             style="fill:#cc0000;fill-opacity:1;fill-rule:nonzero;stroke:#a40000;stroke-width:0.08394829;stroke-miterlimit:4;stroke-opacity:1;stroke-dasharray:none" />
          <rect
             width="2.2389517"
             height="0.73196501"
             x="12.615632"
             y="21.451094"
             transform="matrix(1.3521197,0.04569776,0,1.0306922,-0.63921862,14.847955)"
             id="rect8226"
             style="fill:#eeeeec;fill-opacity:1;fill-rule:nonzero;stroke:#2e3436;stroke-width:0.03864167;stroke-linecap:round;stroke-linejoin:round;stroke-miterlimit:4;stroke-opacity:1;stroke-dasharray:none" />
        </g>
        <path
           d="m 18.082836,13.798966 0.423265,-0.0241 0,2.45182 -0.423265,-0.0086 z"
           transform="matrix(1.9510303,0,0,1.3794627,-8.1064363,9.4345786)"
           id="path3388"
           style="fill:#555753;fill-opacity:1;fill-rule:nonzero;stroke:none" />
        <g
           transform="matrix(1.0647629,0,0,0.91575993,-29.711537,0.89484321)"
           id="g3591"
           style="stroke:none">
          <path
             d="m 104.8691,78.5011 19.64269,1.376235 4.59606,-7.039932 -5.75613,-0.355865 -18.28328,5.366676 z"
             transform="matrix(0.58542012,0,0,0.58542012,-21.643585,-8.2992876)"
             id="path3573"
             style="fill:url(#linearGradient21682);fill-opacity:1;fill-rule:evenodd;stroke:none" />
          <path
             d="m 104.85567,51.608482 0,26.935214 18.54146,-5.863296 0.0459,-7.763252 z"
             transform="matrix(0.58542012,0,0,0.58542012,-21.643585,-8.2992876)"
             id="path3575"
             style="fill:url(#linearGradient21684);fill-opacity:1;fill-rule:evenodd;stroke:none" />
          <path
             d="m 123.28702,64.839053 5.82083,0.09605 0,7.902298 -5.91023,-0.08561 z"
             transform="matrix(0.58542012,0,0,0.58542012,-21.643585,-8.2992876)"
             id="path3577"
             style="fill:#000000;fill-opacity:1;fill-rule:evenodd;stroke:none" />
          <path
             d="m 104.85567,51.608482 19.61852,-1.14115 4.63366,14.467773 -5.73825,0.08599 -18.46107,-12.758271 z"
             transform="matrix(0.58542012,0,0,0.58542012,-21.643585,-8.2992876)"
             id="path3579"
             style="fill:url(#linearGradient21686);fill-opacity:1;fill-rule:nonzero;stroke:none" />
          <path
             d="m 124.49926,50.481905 0.0125,29.39543 4.59606,-7.039932 0,-7.902298 z"
             transform="matrix(0.58542012,0,0,0.58542012,-21.643585,-8.2992876)"
             id="path3581"
             style="fill:url(#linearGradient21688);fill-opacity:1;fill-rule:nonzero;stroke:none" />
          <path
             d="m 104.8691,78.5011 19.56881,1.359054 2.04326,-2.972143 -2.02096,3.718434 -19.57996,-1.672661 z"
             transform="matrix(0.58542012,0,0,0.58542012,-21.643585,-8.2992876)"
             id="path8344"
             style="fill:#babdb6;fill-opacity:1;fill-rule:evenodd;stroke:none" />
          <path
             d="m 104.84452,81.03045 c 0.0433,-0.100618 19.63642,-1.157816 19.63642,-1.157816 l 0.0197,0.733811 -19.64497,0.856689 z"
             transform="matrix(0.58542012,0,0,0.58542012,-21.637058,-25.523499)"
             id="path8346"
             style="fill:#d3d7cf;fill-opacity:1;fill-rule:evenodd;stroke:none" />
        </g>
        <path
           d="m 18.072541,14.3086 0.43356,-0.533738 0,2.45182 -0.43356,-0.401766 z"
           transform="matrix(-1.0603392,0,0,1.3794627,47.622271,9.4345786)"
           id="path3365"
           style="fill:#babdb6;fill-opacity:1;fill-rule:nonzero;stroke:none" />
        <path
           d="m 18.072541,14.075625 0.43356,-0.300763 0,2.45182 -0.43356,-0.168791 z"
           transform="matrix(-0.68970911,0,0,0.49468318,41.144993,22.164625)"
           id="path3378"
           style="fill:#000000;fill-opacity:1;fill-rule:nonzero;stroke:none" />
        <rect
           width="4.2755995"
           height="2.2927127"
           x="19.023319"
           y="15.331359"
           transform="matrix(1.2900459,0.05644543,0,1,-5.1996559,14.964541)"
           id="rect8338"
           style="fill:#414340;fill-opacity:1;fill-rule:nonzero;stroke:none" />
        <rect
           width="4.2755995"
           height="2.2927127"
           x="19.023319"
           y="15.331359"
           transform="matrix(1.2900459,0.04516848,0,1,-5.167858,12.818328)"
           id="rect8340"
           style="fill:#414340;fill-opacity:1;fill-rule:nonzero;stroke:none" />
        <rect
           width="4.2755995"
           height="2.2927127"
           x="19.023319"
           y="15.331359"
           transform="matrix(0.80973478,0.02599291,0,0.62767904,6.0228718,17.465679)"
           id="rect8342"
           style="fill:#2e3436;fill-opacity:1;fill-rule:nonzero;stroke:none" />
        <path
           d="M 6.6342038,11.755696 21.218375,11.350202 21.342539,18.549105 6.6342038,18.023776 z"
           transform="matrix(-0.09249855,0,0,2.1949065,26.790574,-4.5778162)"
           id="path4152"
           style="fill:url(#linearGradient21690);fill-opacity:1;fill-rule:nonzero;stroke:none" />
      </g>
    </g>
  </g>
</svg>
