<?xml version="1.0" encoding="UTF-8" standalone="no"?>
<!-- Created with Inkscape (http://www.inkscape.org/) -->

<svg
   xmlns:dc="http://purl.org/dc/elements/1.1/"
   xmlns:cc="http://creativecommons.org/ns#"
   xmlns:rdf="http://www.w3.org/1999/02/22-rdf-syntax-ns#"
   xmlns:svg="http://www.w3.org/2000/svg"
   xmlns="http://www.w3.org/2000/svg"
   xmlns:xlink="http://www.w3.org/1999/xlink"
   version="1.1"
   width="32"
   height="32"
   viewBox="0 0 32 32"
   id="svg6109">
  <defs
     id="defs6111">
    <linearGradient
       id="linearGradient12887">
      <stop
         id="stop12889"
         style="stop-color:#d3d7cf;stop-opacity:1"
         offset="0" />
      <stop
         id="stop12891"
         style="stop-color:#555753;stop-opacity:1"
         offset="1" />
    </linearGradient>
    <linearGradient
       id="linearGradient12864">
      <stop
         id="stop12866"
         style="stop-color:#888a85;stop-opacity:1"
         offset="0" />
      <stop
         id="stop12868"
         style="stop-color:#2e3436;stop-opacity:1"
         offset="1" />
    </linearGradient>
    <linearGradient
       id="linearGradient12849">
      <stop
         id="stop12851"
         style="stop-color:#888a85;stop-opacity:1"
         offset="0" />
      <stop
         id="stop12853"
         style="stop-color:#ffffff;stop-opacity:1"
         offset="1" />
    </linearGradient>
    <linearGradient
       id="linearGradient12835">
      <stop
         id="stop12837"
         style="stop-color:#d3d7cf;stop-opacity:1"
         offset="0" />
      <stop
         id="stop12839"
         style="stop-color:#ffffff;stop-opacity:1"
         offset="1" />
    </linearGradient>
    <linearGradient
       id="linearGradient12827">
      <stop
         id="stop12829"
         style="stop-color:#888a85;stop-opacity:1"
         offset="0" />
      <stop
         id="stop12831"
         style="stop-color:#eeeeec;stop-opacity:1"
         offset="1" />
    </linearGradient>
    <linearGradient
       id="linearGradient12819">
      <stop
         id="stop12821"
         style="stop-color:#888a85;stop-opacity:1"
         offset="0" />
      <stop
         id="stop12823"
         style="stop-color:#ffffff;stop-opacity:1"
         offset="1" />
    </linearGradient>
    <linearGradient
       id="linearGradient12786">
      <stop
         id="stop12788"
         style="stop-color:#555753;stop-opacity:1"
         offset="0" />
      <stop
         id="stop12790"
         style="stop-color:#b0b0a7;stop-opacity:1"
         offset="0.3291871" />
      <stop
         id="stop12792"
         style="stop-color:#222222;stop-opacity:1"
         offset="0.47274238" />
      <stop
         id="stop12794"
         style="stop-color:#d3d7cf;stop-opacity:1"
         offset="0.60975271" />
      <stop
         id="stop12796"
         style="stop-color:#ffffff;stop-opacity:1"
         offset="0.81707102" />
      <stop
         id="stop12798"
         style="stop-color:#ffffff;stop-opacity:1"
         offset="1" />
    </linearGradient>
    <linearGradient
       id="linearGradient12713">
      <stop
         id="stop12715"
         style="stop-color:#ffffff;stop-opacity:0.50199997"
         offset="0" />
      <stop
         id="stop12717"
         style="stop-color:#ffffff;stop-opacity:0.102"
         offset="1" />
    </linearGradient>
    <linearGradient
       id="linearGradient12694">
      <stop
         id="stop12696"
         style="stop-color:#2e3436;stop-opacity:1"
         offset="0" />
      <stop
         id="stop12698"
         style="stop-color:#babdb6;stop-opacity:1"
         offset="1" />
    </linearGradient>
    <linearGradient
       id="linearGradient12517">
      <stop
         id="stop12519"
         style="stop-color:#ffffff;stop-opacity:0.80000001"
         offset="0" />
      <stop
         id="stop12521"
         style="stop-color:#5a9ee7;stop-opacity:0"
         offset="1" />
    </linearGradient>
    <filter
       x="-0.039668441"
       y="-0.11661741"
       width="1.0793369"
       height="1.2332348"
       color-interpolation-filters="sRGB"
       id="filter9169">
      <feGaussianBlur
         stdDeviation="0.059227518"
         id="feGaussianBlur9171" />
    </filter>
    <filter
       x="-0.10671732"
       y="-0.40662935"
       width="1.2134346"
       height="1.8132586"
       color-interpolation-filters="sRGB"
       id="filter9165">
      <feGaussianBlur
         stdDeviation="0.15650031"
         id="feGaussianBlur9167" />
    </filter>
    <filter
       x="-0.10518846"
       y="-0.049505871"
       width="1.2103769"
       height="1.0990117"
       color-interpolation-filters="sRGB"
       id="filter6323">
      <feGaussianBlur
         stdDeviation="0.071247393"
         id="feGaussianBlur6325" />
    </filter>
    <filter
       x="-0.10518846"
       y="-0.049505871"
       width="1.2103769"
       height="1.0990117"
       color-interpolation-filters="sRGB"
       id="filter6303">
      <feGaussianBlur
         stdDeviation="0.071247393"
         id="feGaussianBlur6305" />
    </filter>
    <filter
       x="-0.10556995"
       y="-0.049685415"
       width="1.2111399"
       height="1.0993708"
       color-interpolation-filters="sRGB"
       id="filter6273">
      <feGaussianBlur
         stdDeviation="0.071505786"
         id="feGaussianBlur6275" />
    </filter>
    <linearGradient
       id="linearGradient11293">
      <stop
         id="stop11295"
         style="stop-color:#eeeeec;stop-opacity:1"
         offset="0" />
      <stop
         id="stop11297"
         style="stop-color:#888a85;stop-opacity:1"
         offset="1" />
    </linearGradient>
    <linearGradient
       id="linearGradient11307">
      <stop
         id="stop11309"
         style="stop-color:#d3d7cf;stop-opacity:1"
         offset="0" />
      <stop
         id="stop11311"
         style="stop-color:#d3d7cf;stop-opacity:0"
         offset="1" />
    </linearGradient>
    <linearGradient
       id="linearGradient6281">
      <stop
         id="stop6283"
         style="stop-color:#babdb6;stop-opacity:1"
         offset="0" />
      <stop
         id="stop6285"
         style="stop-color:#555753;stop-opacity:1"
         offset="1" />
    </linearGradient>
    <filter
       color-interpolation-filters="sRGB"
       id="filter12645">
      <feGaussianBlur
         id="feGaussianBlur12647"
         stdDeviation="0.22661944" />
    </filter>
    <linearGradient
       x1="-4.1789908"
       y1="11.85955"
       x2="-3.5689268"
       y2="11.85955"
       id="linearGradient4048"
       xlink:href="#linearGradient6281"
       gradientUnits="userSpaceOnUse"
       spreadMethod="reflect" />
    <linearGradient
       x1="-4.3024578"
       y1="12.756751"
       x2="-3.7956991"
       y2="12.771461"
       id="linearGradient4050"
       xlink:href="#linearGradient11307"
       gradientUnits="userSpaceOnUse"
       spreadMethod="reflect" />
    <linearGradient
       x1="-8.3817816"
       y1="14.919662"
       x2="-7.5575981"
       y2="14.842396"
       id="linearGradient4052"
       xlink:href="#linearGradient11293"
       gradientUnits="userSpaceOnUse"
       spreadMethod="reflect" />
    <linearGradient
       x1="-8.3817816"
       y1="14.919662"
       x2="-7.5575981"
       y2="14.842396"
       id="linearGradient4054"
       xlink:href="#linearGradient11293"
       gradientUnits="userSpaceOnUse"
       spreadMethod="reflect" />
    <linearGradient
       x1="-8.3817816"
       y1="14.919662"
       x2="-7.5575981"
       y2="14.842396"
       id="linearGradient4056"
       xlink:href="#linearGradient11293"
       gradientUnits="userSpaceOnUse"
       spreadMethod="reflect" />
    <linearGradient
       x1="-2.5081038"
       y1="10.43014"
       x2="-9.4036474"
       y2="8.5010414"
       id="linearGradient4058"
       xlink:href="#linearGradient11293"
       gradientUnits="userSpaceOnUse" />
    <linearGradient
       x1="-3.6348886"
       y1="10.382128"
       x2="-8.7433596"
       y2="8.751503"
       id="linearGradient4060"
       xlink:href="#linearGradient11293"
       gradientUnits="userSpaceOnUse" />
    <linearGradient
       x1="-3.2505894"
       y1="9.4760866"
       x2="-2.739588"
       y2="12.494598"
       id="linearGradient4062"
       xlink:href="#linearGradient11293"
       gradientUnits="userSpaceOnUse" />
    <linearGradient
       x1="-14.792255"
       y1="1.1976585"
       x2="-15.427708"
       y2="-2.8528681"
       id="linearGradient4064"
       xlink:href="#linearGradient11293"
       gradientUnits="userSpaceOnUse" />
    <linearGradient
       x1="-16.296341"
       y1="-1.2018825"
       x2="-16.267166"
       y2="1.2463077"
       id="linearGradient4066"
       xlink:href="#linearGradient11293"
       gradientUnits="userSpaceOnUse" />
    <linearGradient
       x1="-4.1789908"
       y1="11.85955"
       x2="-3.5689268"
       y2="11.85955"
       id="linearGradient4068"
       xlink:href="#linearGradient6281"
       gradientUnits="userSpaceOnUse"
       spreadMethod="reflect" />
    <linearGradient
       x1="-4.3024578"
       y1="12.756751"
       x2="-3.7956991"
       y2="12.771461"
       id="linearGradient4070"
       xlink:href="#linearGradient11307"
       gradientUnits="userSpaceOnUse"
       spreadMethod="reflect" />
    <linearGradient
       x1="-8.3817816"
       y1="14.919662"
       x2="-7.5575981"
       y2="14.842396"
       id="linearGradient4072"
       xlink:href="#linearGradient11293"
       gradientUnits="userSpaceOnUse"
       spreadMethod="reflect" />
    <linearGradient
       x1="-8.3817816"
       y1="14.919662"
       x2="-7.5575981"
       y2="14.842396"
       id="linearGradient4074"
       xlink:href="#linearGradient11293"
       gradientUnits="userSpaceOnUse"
       spreadMethod="reflect" />
    <linearGradient
       x1="-8.3817816"
       y1="14.919662"
       x2="-7.5575981"
       y2="14.842396"
       id="linearGradient4076"
       xlink:href="#linearGradient11293"
       gradientUnits="userSpaceOnUse"
       spreadMethod="reflect" />
    <linearGradient
       x1="-2.5081038"
       y1="10.43014"
       x2="-9.4036474"
       y2="8.5010414"
       id="linearGradient4078"
       xlink:href="#linearGradient11293"
       gradientUnits="userSpaceOnUse" />
    <linearGradient
       x1="-3.6348886"
       y1="10.382128"
       x2="-8.7433596"
       y2="8.751503"
       id="linearGradient4080"
       xlink:href="#linearGradient11293"
       gradientUnits="userSpaceOnUse" />
    <linearGradient
       x1="-3.2505894"
       y1="9.4760866"
       x2="-2.739588"
       y2="12.494598"
       id="linearGradient4082"
       xlink:href="#linearGradient11293"
       gradientUnits="userSpaceOnUse" />
    <linearGradient
       x1="-14.792255"
       y1="1.1976585"
       x2="-15.427708"
       y2="-2.8528681"
       id="linearGradient4084"
       xlink:href="#linearGradient11293"
       gradientUnits="userSpaceOnUse" />
    <linearGradient
       x1="-16.296341"
       y1="-1.2018825"
       x2="-16.267166"
       y2="1.2463077"
       id="linearGradient4086"
       xlink:href="#linearGradient11293"
       gradientUnits="userSpaceOnUse" />
    <linearGradient
       x1="9.7832718"
       y1="12.652699"
       x2="12.415372"
       y2="19.530661"
       id="linearGradient4088"
       xlink:href="#linearGradient12864"
       gradientUnits="userSpaceOnUse"
       gradientTransform="matrix(0.70710678,-0.70710678,0.70710678,0.70710678,-7.6261006,17.028914)"
       spreadMethod="reflect" />
    <linearGradient
       x1="10.864923"
       y1="19.455606"
       x2="8.8217106"
       y2="12.389905"
       id="linearGradient4090"
       xlink:href="#linearGradient12849"
       gradientUnits="userSpaceOnUse"
       gradientTransform="matrix(0.70710678,-0.70710678,0.70710678,0.70710678,-7.6261006,17.028914)"
       spreadMethod="reflect" />
    <radialGradient
       cx="13.098431"
       cy="9.6001625"
       r="5.7013335"
       fx="13.098431"
       fy="9.6001625"
       id="radialGradient4092"
       xlink:href="#linearGradient12517"
       gradientUnits="userSpaceOnUse"
       gradientTransform="matrix(1.6652165,9.1960686e-8,-1.3402971e-7,1.6452591,-8.6695059,-6.4726186)" />
    <linearGradient
       x1="14.645783"
       y1="10.24838"
       x2="14.515111"
       y2="9.3586445"
       id="linearGradient4094"
       xlink:href="#linearGradient12713"
       gradientUnits="userSpaceOnUse" />
    <linearGradient
       x1="7.2083654"
       y1="15.464555"
       x2="15.439878"
       y2="20.536186"
       id="linearGradient4096"
       xlink:href="#linearGradient12887"
       gradientUnits="userSpaceOnUse"
       spreadMethod="reflect" />
    <linearGradient
       x1="16.459517"
       y1="20.093033"
       x2="20.017157"
       y2="6.9598079"
       id="linearGradient4098"
       xlink:href="#linearGradient12835"
       gradientUnits="userSpaceOnUse"
       spreadMethod="reflect" />
    <linearGradient
       x1="13.058061"
       y1="16.754074"
       x2="17.754753"
       y2="11.807476"
       id="linearGradient4100"
       xlink:href="#linearGradient12827"
       gradientUnits="userSpaceOnUse" />
    <linearGradient
       x1="17.964025"
       y1="9.8783016"
       x2="15.629069"
       y2="16.055792"
       id="linearGradient4102"
       xlink:href="#linearGradient12819"
       gradientUnits="userSpaceOnUse" />
    <linearGradient
       x1="23.051056"
       y1="24.102253"
       x2="24.384569"
       y2="24.102253"
       id="linearGradient4104"
       xlink:href="#linearGradient12786"
       gradientUnits="userSpaceOnUse"
       spreadMethod="reflect" />
    <linearGradient
       x1="23.165604"
       y1="24.102253"
       x2="24.416767"
       y2="24.102253"
       id="linearGradient4106"
       xlink:href="#linearGradient12786"
       gradientUnits="userSpaceOnUse"
       spreadMethod="reflect" />
    <linearGradient
       x1="23.051056"
       y1="24.102253"
       x2="24.452137"
       y2="24.102253"
       id="linearGradient4108"
       xlink:href="#linearGradient12786"
       gradientUnits="userSpaceOnUse"
       spreadMethod="reflect" />
    <linearGradient
       x1="23.111723"
       y1="24.102253"
       x2="24.452284"
       y2="24.102253"
       id="linearGradient4110"
       xlink:href="#linearGradient12786"
       gradientUnits="userSpaceOnUse"
       spreadMethod="reflect" />
    <linearGradient
       x1="23.097771"
       y1="24.102253"
       x2="24.601797"
       y2="24.102253"
       id="linearGradient4112"
       xlink:href="#linearGradient12694"
       gradientUnits="userSpaceOnUse"
       spreadMethod="reflect" />
  </defs>
  <metadata
     id="metadata6114">
    <rdf:RDF>
      <cc:Work
         rdf:about="">
        <dc:format>image/svg+xml</dc:format>
        <dc:type
           rdf:resource="http://purl.org/dc/dcmitype/StillImage" />
        <dc:title></dc:title>
      </cc:Work>
    </rdf:RDF>
  </metadata>
  <g
     id="g4197">
    <g
       transform="matrix(0.57464052,0,0,0.58697648,6.7239834,-23.68841)"
       id="g12426">
      <path
         d="m 5.5494448,6.007677 c 0,0.1460917 -0.2623768,0.069605 -0.6925122,0.1506057 C 4.5644495,6.2133612 4.531752,6.4830417 4.1389268,6.4880934 2.8318696,6.5049022 1.5707919,6.3754833 1.2820818,6.2430156 1.05291,6.1378656 2.902524,5.6750502 3.872561,5.6750502 c 0.970037,0 1.6768838,0.087196 1.6768838,0.3326268 z"
         transform="matrix(-2.1592381,-0.52567421,-0.65435029,2.2517683,24.257578,58.68891)"
         id="path8290"
         style="opacity:0.5;fill:#000000;fill-opacity:1;fill-rule:nonzero;stroke:none;filter:url(#filter9169)" />
      <g
         transform="matrix(-0.44799689,-0.50078821,-0.67894397,0.58737743,27.142046,56.012123)"
         id="g8292">
        <path
           d="m -4.9952383,10.585631 1.5202899,0 0,2.236998 c -0.084899,0.406795 -1.4707313,0.422044 -1.5202899,0 z"
           transform="matrix(2.4839498,0,0,2.1619177,13.945188,-3.3935204)"
           id="path8294"
           style="fill:url(#linearGradient4048);fill-opacity:1;fill-rule:nonzero;stroke:url(#linearGradient4050);stroke-width:0.0956727;stroke-linecap:round;stroke-linejoin:round;stroke-miterlimit:4;stroke-opacity:1;stroke-dasharray:none;stroke-dashoffset:0" />
        <path
           d="m -7.5630821,14.213956 c 0.01477,2.673533 -1.6219651,2.017389 -1.6254916,-0.355996 -6.767e-4,-0.455427 0.1100024,-0.723522 0.137949,-0.70704 l 0.0018,0.572474 c 0.5333869,1.133387 1.0658053,0.565682 1.3411024,0.272088 l 7.525e-4,-0.676947 c 0.048771,-0.103769 0.1410977,0.604284 0.1438877,0.895421 z"
           transform="matrix(2.5176485,-0.50268056,0,0.5321191,24.517472,9.3570567)"
           id="path8296"
           style="fill:#555753;fill-opacity:1;fill-rule:nonzero;stroke:none;filter:url(#filter6303)" />
        <path
           d="m -7.5630821,14.213956 c 0.01477,2.673533 -1.6219651,2.017389 -1.6254916,-0.355996 -6.767e-4,-0.455427 0.1100024,-0.723522 0.137949,-0.70704 l 0.0018,0.572474 c 0.5333869,1.133387 1.0658053,0.565682 1.3411024,0.272088 l 7.525e-4,-0.676947 c 0.048771,-0.103769 0.1410977,0.604284 0.1438877,0.895421 z"
           transform="matrix(2.8642859,-0.49032534,0,0.51904032,27.42083,9.464878)"
           id="path8298"
           style="fill:url(#linearGradient4052);fill-opacity:1;fill-rule:nonzero;stroke:none" />
        <path
           d="m -7.5630821,14.213956 c 0.01477,2.673533 -1.6219651,2.017389 -1.6254916,-0.355996 -6.767e-4,-0.455427 0.1100024,-0.723522 0.137949,-0.70704 l 0.0018,0.572474 c 0.5333869,1.133387 1.0658053,0.565682 1.3411024,0.272088 l 7.525e-4,-0.676947 c 0.048771,-0.103769 0.1410977,0.604284 0.1438877,0.895421 z"
           transform="matrix(2.5176485,-0.50268056,0,0.5321191,24.517472,11.677096)"
           id="path8300"
           style="fill:#555753;fill-opacity:1;fill-rule:nonzero;stroke:none;filter:url(#filter6323)" />
        <path
           d="m -7.5630821,14.213956 c 0.01477,2.673533 -1.6219651,2.017389 -1.6254916,-0.355996 -6.767e-4,-0.455427 0.1100024,-0.723522 0.137949,-0.70704 l 0.0018,0.572474 c 0.5333869,1.133387 1.0658053,0.565682 1.3411024,0.272088 l 7.525e-4,-0.676947 c 0.048771,-0.103769 0.1410977,0.604284 0.1438877,0.895421 z"
           transform="matrix(2.8642859,-0.49032534,0,0.51904032,27.42083,11.727894)"
           id="path8302"
           style="fill:url(#linearGradient4054);fill-opacity:1;fill-rule:nonzero;stroke:none" />
        <path
           d="m -7.5630821,14.213956 c 0.01477,2.673533 -1.6219651,2.017389 -1.6254916,-0.355996 -6.767e-4,-0.455427 0.1100024,-0.723522 0.137949,-0.70704 l 0.0018,0.572474 c 0.5333869,1.133387 1.0658053,0.565682 1.3411024,0.272088 l 7.525e-4,-0.676947 c 0.048771,-0.103769 0.1410977,0.604284 0.1438877,0.895421 z"
           transform="matrix(2.5176485,-0.50268056,0,0.5321191,24.517472,10.517077)"
           id="path8304"
           style="fill:#555753;fill-opacity:1;fill-rule:nonzero;stroke:none;filter:url(#filter6273)" />
        <path
           d="m -7.5630821,14.213956 c 0.01477,2.673533 -1.6219651,2.017389 -1.6254916,-0.355996 -6.767e-4,-0.455427 0.1100024,-0.723522 0.137949,-0.70704 l 0.0018,0.572474 c 0.5333869,1.133387 1.0658053,0.565682 1.3411024,0.272088 l 7.525e-4,-0.676947 c 0.048771,-0.103769 0.1410977,0.604284 0.1438877,0.895421 z"
           transform="matrix(2.8642859,-0.49032534,0,0.51904032,27.42083,10.596386)"
           id="path8306"
           style="fill:url(#linearGradient4056);fill-opacity:1;fill-rule:nonzero;stroke:none" />
        <g
           transform="matrix(2.1559925,0,0,2.1619177,12.801233,-35.822286)"
           id="g8308"
           style="stroke:#d3d7cf;stroke-width:0.10269172;stroke-miterlimit:4;stroke-dasharray:none">
          <path
             d="M -6.8720097,7.9213378 -5,9 -5,10.60544 -6.8720097,9.5267781 z"
             transform="matrix(0.42964001,0,0,0.40163075,-3.0048086,21.78138)"
             id="path8310"
             style="fill:url(#linearGradient4058);fill-opacity:1;fill-rule:nonzero;stroke:#888a85;stroke-width:0.24721205;stroke-linecap:round;stroke-linejoin:round;stroke-miterlimit:4;stroke-opacity:1;stroke-dasharray:none;stroke-dashoffset:0" />
          <path
             d="M -6.8720097,7.9213378 -5,9 -5,10.60544 -6.8720097,9.5267781 z"
             transform="matrix(-0.42964001,0,0,0.40163075,-5.692628,21.78138)"
             id="path8312"
             style="fill:url(#linearGradient4060);fill-opacity:1;fill-rule:nonzero;stroke:#888a85;stroke-width:0.24721205;stroke-linecap:round;stroke-linejoin:round;stroke-miterlimit:4;stroke-opacity:1;stroke-dasharray:none;stroke-dashoffset:0" />
          <path
             d="M -1.2559803,8.9999998 -5,9 l 0,1.60544 3.7440197,0 z"
             transform="matrix(-0.42964001,0,0,0.40163075,-5.692628,21.78138)"
             id="path8314"
             style="fill:url(#linearGradient4062);fill-opacity:1;fill-rule:nonzero;stroke:#888a85;stroke-width:0.24721205;stroke-linecap:round;stroke-linejoin:round;stroke-miterlimit:4;stroke-opacity:1;stroke-dasharray:none;stroke-dashoffset:0" />
          <path
             d="m -14.155309,2.3341798 -2.280364,-10e-8 -1.140182,-1.974853 1.140182,-1.9748529 2.280364,10e-8 1.140182,1.97485302 z"
             transform="matrix(0.70540529,0,0,0.21937017,6.4408022,24.884007)"
             id="path8316"
             style="fill:url(#linearGradient4064);fill-opacity:1;fill-rule:nonzero;stroke:url(#linearGradient4066);stroke-width:0.26105216;stroke-linecap:round;stroke-linejoin:round;stroke-miterlimit:4;stroke-opacity:1;stroke-dasharray:none;stroke-dashoffset:0" />
        </g>
      </g>
      <path
         d="m 5.6289684,6.1194425 a 1.7564074,0.44439223 0 1 1 -3.5128148,0 1.7564074,0.44439223 0 1 1 3.5128148,0 z"
         transform="matrix(-0.99108248,0.10451343,0.25610722,1.2147308,21.333019,64.645834)"
         id="path8318"
         style="opacity:0.5;fill:#000000;fill-opacity:1;fill-rule:nonzero;stroke:none;filter:url(#filter9165)" />
      <g
         transform="matrix(-0.042312,1.0530591,-1.411024,-0.05669505,45.662242,66.61498)"
         id="g8320">
        <path
           d="m -4.9952383,10.585631 1.5202899,0 0,2.236998 c -0.084899,0.406795 -1.4707313,0.422044 -1.5202899,0 z"
           transform="matrix(2.4839498,0,0,2.1619177,13.945188,-3.3935204)"
           id="path8322"
           style="fill:url(#linearGradient4068);fill-opacity:1;fill-rule:nonzero;stroke:url(#linearGradient4070);stroke-width:0.06090556;stroke-linecap:round;stroke-linejoin:round;stroke-miterlimit:4;stroke-opacity:1;stroke-dasharray:none;stroke-dashoffset:0" />
        <path
           d="m -7.5630821,14.213956 c 0.01477,2.673533 -1.6219651,2.017389 -1.6254916,-0.355996 -6.767e-4,-0.455427 0.1100024,-0.723522 0.137949,-0.70704 l 0.0018,0.572474 c 0.5333869,1.133387 1.0658053,0.565682 1.3411024,0.272088 l 7.525e-4,-0.676947 c 0.048771,-0.103769 0.1410977,0.604284 0.1438877,0.895421 z"
           transform="matrix(2.5176485,-0.50268056,0,0.5321191,24.517472,9.3570567)"
           id="path8324"
           style="fill:#555753;fill-opacity:1;fill-rule:nonzero;stroke:none;filter:url(#filter6303)" />
        <path
           d="m -7.5630821,14.213956 c 0.01477,2.673533 -1.6219651,2.017389 -1.6254916,-0.355996 -6.767e-4,-0.455427 0.1100024,-0.723522 0.137949,-0.70704 l 0.0018,0.572474 c 0.5333869,1.133387 1.0658053,0.565682 1.3411024,0.272088 l 7.525e-4,-0.676947 c 0.048771,-0.103769 0.1410977,0.604284 0.1438877,0.895421 z"
           transform="matrix(2.8642859,-0.49032534,0,0.51904032,27.42083,9.464878)"
           id="path8326"
           style="fill:url(#linearGradient4072);fill-opacity:1;fill-rule:nonzero;stroke:none" />
        <path
           d="m -7.5630821,14.213956 c 0.01477,2.673533 -1.6219651,2.017389 -1.6254916,-0.355996 -6.767e-4,-0.455427 0.1100024,-0.723522 0.137949,-0.70704 l 0.0018,0.572474 c 0.5333869,1.133387 1.0658053,0.565682 1.3411024,0.272088 l 7.525e-4,-0.676947 c 0.048771,-0.103769 0.1410977,0.604284 0.1438877,0.895421 z"
           transform="matrix(2.5176485,-0.50268056,0,0.5321191,24.517472,11.677096)"
           id="path8328"
           style="fill:#555753;fill-opacity:1;fill-rule:nonzero;stroke:none;filter:url(#filter6323)" />
        <path
           d="m -7.5630821,14.213956 c 0.01477,2.673533 -1.6219651,2.017389 -1.6254916,-0.355996 -6.767e-4,-0.455427 0.1100024,-0.723522 0.137949,-0.70704 l 0.0018,0.572474 c 0.5333869,1.133387 1.0658053,0.565682 1.3411024,0.272088 l 7.525e-4,-0.676947 c 0.048771,-0.103769 0.1410977,0.604284 0.1438877,0.895421 z"
           transform="matrix(2.8642859,-0.49032534,0,0.51904032,27.42083,11.727894)"
           id="path8330"
           style="fill:url(#linearGradient4074);fill-opacity:1;fill-rule:nonzero;stroke:none" />
        <path
           d="m -7.5630821,14.213956 c 0.01477,2.673533 -1.6219651,2.017389 -1.6254916,-0.355996 -6.767e-4,-0.455427 0.1100024,-0.723522 0.137949,-0.70704 l 0.0018,0.572474 c 0.5333869,1.133387 1.0658053,0.565682 1.3411024,0.272088 l 7.525e-4,-0.676947 c 0.048771,-0.103769 0.1410977,0.604284 0.1438877,0.895421 z"
           transform="matrix(2.5176485,-0.50268056,0,0.5321191,24.517472,10.517077)"
           id="path8332"
           style="fill:#555753;fill-opacity:1;fill-rule:nonzero;stroke:none;filter:url(#filter6273)" />
        <path
           d="m -7.5630821,14.213956 c 0.01477,2.673533 -1.6219651,2.017389 -1.6254916,-0.355996 -6.767e-4,-0.455427 0.1100024,-0.723522 0.137949,-0.70704 l 0.0018,0.572474 c 0.5333869,1.133387 1.0658053,0.565682 1.3411024,0.272088 l 7.525e-4,-0.676947 c 0.048771,-0.103769 0.1410977,0.604284 0.1438877,0.895421 z"
           transform="matrix(2.8642859,-0.49032534,0,0.51904032,27.42083,10.596386)"
           id="path8334"
           style="fill:url(#linearGradient4076);fill-opacity:1;fill-rule:nonzero;stroke:none" />
        <g
           transform="matrix(2.1559925,0,0,2.1619177,12.801233,-35.822286)"
           id="g8336"
           style="stroke:#d3d7cf;stroke-width:0.06537386;stroke-miterlimit:4;stroke-dasharray:none">
          <path
             d="M -6.8720097,7.9213378 -5,9 -5,10.60544 -6.8720097,9.5267781 z"
             transform="matrix(0.42964001,0,0,0.40163075,-3.0048086,21.78138)"
             id="path8338"
             style="fill:url(#linearGradient4078);fill-opacity:1;fill-rule:nonzero;stroke:#888a85;stroke-width:0.15737602;stroke-linecap:round;stroke-linejoin:round;stroke-miterlimit:4;stroke-opacity:1;stroke-dasharray:none;stroke-dashoffset:0" />
          <path
             d="M -6.8720097,7.9213378 -5,9 -5,10.60544 -6.8720097,9.5267781 z"
             transform="matrix(-0.42964001,0,0,0.40163075,-5.692628,21.78138)"
             id="path8340"
             style="fill:url(#linearGradient4080);fill-opacity:1;fill-rule:nonzero;stroke:#888a85;stroke-width:0.15737602;stroke-linecap:round;stroke-linejoin:round;stroke-miterlimit:4;stroke-opacity:1;stroke-dasharray:none;stroke-dashoffset:0" />
          <path
             d="M -1.2559803,8.9999998 -5,9 l 0,1.60544 3.7440197,0 z"
             transform="matrix(-0.42964001,0,0,0.40163075,-5.692628,21.78138)"
             id="path8342"
             style="fill:url(#linearGradient4082);fill-opacity:1;fill-rule:nonzero;stroke:#888a85;stroke-width:0.15737602;stroke-linecap:round;stroke-linejoin:round;stroke-miterlimit:4;stroke-opacity:1;stroke-dasharray:none;stroke-dashoffset:0" />
          <path
             d="m -14.155309,2.3341798 -2.280364,-10e-8 -1.140182,-1.974853 1.140182,-1.9748529 2.280364,10e-8 1.140182,1.97485302 z"
             transform="matrix(0.70540529,0,0,0.21937017,6.4408022,24.884007)"
             id="path8344"
             style="fill:url(#linearGradient4084);fill-opacity:1;fill-rule:nonzero;stroke:url(#linearGradient4086);stroke-width:0.16618672;stroke-linecap:round;stroke-linejoin:round;stroke-miterlimit:4;stroke-opacity:1;stroke-dasharray:none;stroke-dashoffset:0" />
        </g>
      </g>
    </g>
    <g
       transform="matrix(0.72074394,0.43902856,-0.43902856,0.72074394,20.729495,-16.283306)"
       id="g12936">
      <g
         transform="translate(0.31479969,-0.24484421)"
         id="g12907">
        <path
           d="m 5.3048323,12.351521 c -0.00458,2.530692 -0.1512497,4.754897 2.2904074,7.196554 3.1012843,3.101284 7.5173233,3.701195 10.0713223,1.147196 1.393206,-1.393206 1.857941,-2.116352 1.846082,-5.247264 L 19,14.5625 c 0.364707,1.904571 0.143751,3.894985 -1.160959,5.199691 C 15.519564,22.081668 11.129636,21.567136 8.3125,18.75 6.0438749,16.481375 5.0852575,13.45537 6.1074482,11.105941 z"
           transform="matrix(-0.98221344,0,0,-0.99222778,24.605905,45.256649)"
           id="path12860"
           style="fill:url(#linearGradient4088);fill-opacity:1;fill-rule:nonzero;stroke:none" />
        <path
           d="m 4.9357725,12.548795 c -0.2604707,1.353242 -0.1201289,4.174996 2.7467356,6.914669 2.8668649,2.739673 6.7400329,3.005403 8.6243149,1.661163 1.884282,-1.34424 3.290176,-2.450309 2.937128,-4.248936 C 18.747307,18.01056 18.022525,19.335942 17.625,19.65625 15.114412,21.679169 11.331987,21.335878 8.5437578,18.778907 6.1791936,16.610462 5.2082732,14.650254 5.4499688,10.797649 z"
           transform="translate(0,16)"
           id="path12843"
           style="fill:url(#linearGradient4090);fill-opacity:1;fill-rule:nonzero;stroke:none" />
        <path
           d="m 17.722048,11.985239 a 5.6388335,5.6388335 0 1 1 -11.2776668,0 5.6388335,5.6388335 0 1 1 11.2776668,0 z"
           transform="matrix(0.74479685,-0.74479685,0.90459767,0.90459767,-7.3149158,28.096516)"
           id="path12502"
           style="fill:url(#radialGradient4092);fill-opacity:1;fill-rule:nonzero;stroke:none" />
        <path
           d="m 16,5.28125 c -3.003134,-0.1179227 -5.651856,1.7924867 -5.625,4.875 1.66048,0.474384 3.582974,0.75 5.625,0.75 2.042026,0 3.96452,-0.275616 5.625,-0.75 C 20.825426,7.3195137 18.597089,5.3832288 16,5.28125 z"
           transform="matrix(1.033176,-0.26323389,0.37028418,1.1597265,-8.0488432,21.876042)"
           id="path12700"
           style="fill:url(#linearGradient4094);fill-opacity:1;fill-rule:nonzero;stroke:none" />
        <path
           d="m 17.722048,11.985239 a 5.6388335,5.6388335 0 1 1 -11.2776668,0 5.6388335,5.6388335 0 1 1 11.2776668,0 z"
           transform="matrix(0.74426156,-0.72269889,0.90394753,0.87775845,-7.3058104,28.367896)"
           id="path12531"
           style="fill:none;stroke:#000000;stroke-width:0.31099221;stroke-miterlimit:4;stroke-dasharray:none;filter:url(#filter12645)" />
        <path
           d="m 4.0625,7.625 c 0.2611586,0.9018508 0.40625,2.0578426 0.40625,3.34375 0,1.195056 -0.1460962,2.282912 -0.375,3.15625 1.2470256,-0.149051 2.25,-1.536665 2.25,-3.25 0,-1.7272782 -1.0197022,-3.1204371 -2.28125,-3.25 z"
           transform="matrix(-0.11912907,-0.7310494,0.72832335,-0.03634919,4.2812071,29.583463)"
           id="path12726"
           style="fill:#ffffff;fill-opacity:1;fill-rule:nonzero;stroke:none" />
        <path
           d="m 5.0484906,11.108804 c -0.061545,3.135257 0.4468811,6.031201 2.888538,8.472858 3.1012844,3.101284 7.1755344,3.667608 9.7295334,1.113609 1.393206,-1.393206 1.857941,-2.116352 1.846082,-5.247264 -0.267878,1.701883 -0.485607,2.808594 -1.673603,4.314184 -2.071658,2.625487 -6.65244,2.241575 -9.4695762,-0.575561 C 6.1254994,17.178056 5.3184943,13.98621 5.0484906,11.108804 z"
           transform="matrix(-0.92265005,0,0,-0.78242573,23.866883,40.579593)"
           id="path12885"
           style="fill:url(#linearGradient4096);fill-opacity:1;fill-rule:nonzero;stroke:none" />
        <g
           id="g12874">
          <path
             d="m 16,4.5586645 c -3.6119,0 -6.5399234,3.555457 -6.5399234,7.9413355 0,4.385878 2.9280234,7.941336 6.5399234,7.941336 3.6119,0 6.539923,-3.555458 6.539923,-7.941336 C 22.539923,8.1141215 19.6119,4.5586645 16,4.5586645 z M 16,5.28125 c 3.280236,0 5.9375,3.2347183 5.9375,7.21875 0,3.984032 -2.657264,7.21875 -5.9375,7.21875 -3.280236,0 -5.9375,-3.234718 -5.9375,-7.21875 0,-3.9840317 2.657264,-7.21875 5.9375,-7.21875 z"
             transform="matrix(0.70710678,-0.70710678,0.70710678,0.70710678,-7.6261006,32.413669)"
             id="path12496"
             style="fill:url(#linearGradient4098);fill-opacity:1;fill-rule:nonzero;stroke:none" />
          <path
             d="m 16,4.5586645 c -3.6119,0 -6.5399234,3.555457 -6.5399234,7.9413355 0,4.385878 2.9280234,7.941336 6.5399234,7.941336 3.6119,0 6.539923,-3.555458 6.539923,-7.941336 C 22.539923,8.1141215 19.6119,4.5586645 16,4.5586645 z"
             transform="matrix(0.70710678,-0.70710678,0.70710678,0.70710678,-7.6261006,32.413669)"
             id="path12817"
             style="fill:none;stroke:url(#linearGradient4100);stroke-width:0.11849324;stroke-miterlimit:4;stroke-dasharray:none" />
          <path
             d="m 16,5.28125 c 3.280236,0 5.9375,3.2347183 5.9375,7.21875 0,3.984032 -2.657264,7.21875 -5.9375,7.21875 -3.280236,0 -5.9375,-3.234718 -5.9375,-7.21875 0,-3.9840317 2.657264,-7.21875 5.9375,-7.21875 z"
             transform="matrix(0.70710678,-0.70710678,0.70710678,0.70710678,-7.6261006,32.413669)"
             id="path12815"
             style="fill:none;stroke:url(#linearGradient4102);stroke-width:0.11849324;stroke-miterlimit:4;stroke-dasharray:none" />
        </g>
      </g>
      <g
         transform="matrix(0.70710678,-0.70710678,0.70710678,0.70710678,-18.939809,21.09996)"
         id="g12800"
         style="stroke:#2e3436;stroke-width:1.18493235">
        <rect
           width="2.4786081"
           height="8.7990589"
           x="23.051056"
           y="20.10268"
           transform="matrix(0.86601364,0,0,0.03773531,-5.035783,45.231106)"
           id="rect12690"
           style="fill:url(#linearGradient4104);fill-opacity:1;fill-rule:nonzero;stroke:#2e3436;stroke-width:0.65547663;stroke-linecap:round;stroke-linejoin:round;stroke-miterlimit:4;stroke-dasharray:none" />
        <rect
           width="2.4786081"
           height="8.7990589"
           x="23.051056"
           y="20.10268"
           transform="matrix(0.58429269,0,0,-0.18411564,1.8073201,42.021396)"
           id="rect12666"
           style="fill:url(#linearGradient4106);fill-opacity:1;fill-rule:nonzero;stroke:#2e3436;stroke-width:0.36127093;stroke-linecap:round;stroke-linejoin:round;stroke-miterlimit:4;stroke-dasharray:none" />
        <rect
           width="2.4786081"
           height="8.7990589"
           x="23.051056"
           y="20.10268"
           transform="matrix(0.80690449,0,0,0.10460108,-3.6000005,35.885784)"
           id="rect12670"
           style="fill:url(#linearGradient4108);fill-opacity:1;fill-rule:nonzero;stroke:#2e3436;stroke-width:0.40786308;stroke-linecap:round;stroke-linejoin:round;stroke-miterlimit:4;stroke-dasharray:none" />
        <rect
           width="2.4786081"
           height="8.7990589"
           x="23.051056"
           y="20.10268"
           transform="matrix(0.80690449,0,0,0.06064125,-3.6000005,35.161192)"
           id="rect12500"
           style="fill:url(#linearGradient4110);fill-opacity:1;fill-rule:nonzero;stroke:#2e3436;stroke-width:0.53567135;stroke-linecap:round;stroke-linejoin:round;stroke-miterlimit:4;stroke-dasharray:none" />
        <rect
           width="2.4786081"
           height="8.7990589"
           x="23.051056"
           y="20.10268"
           transform="matrix(0.86601364,0,0,-0.80498793,-5.035783,62.20268)"
           id="rect12686"
           style="fill:url(#linearGradient4112);fill-opacity:1;fill-rule:nonzero;stroke:#2e3436;stroke-width:0.14191768;stroke-linecap:round;stroke-linejoin:round;stroke-miterlimit:4;stroke-dasharray:none" />
      </g>
    </g>
  </g>
</svg>
