<?xml version="1.0" encoding="UTF-8" standalone="no"?>
<!-- Created with Inkscape (http://www.inkscape.org/) -->

<svg
   xmlns:dc="http://purl.org/dc/elements/1.1/"
   xmlns:cc="http://creativecommons.org/ns#"
   xmlns:rdf="http://www.w3.org/1999/02/22-rdf-syntax-ns#"
   xmlns:svg="http://www.w3.org/2000/svg"
   xmlns="http://www.w3.org/2000/svg"
   xmlns:xlink="http://www.w3.org/1999/xlink"
   version="1.1"
   width="32"
   height="32"
   viewBox="0 0 32 32"
   id="svg6109">
  <defs
     id="defs6111">
    <linearGradient
       id="linearGradient4261">
      <stop
         id="stop4263"
         style="stop-color:#555753;stop-opacity:1"
         offset="0" />
      <stop
         id="stop4265"
         style="stop-color:#ffffff;stop-opacity:1"
         offset="1" />
    </linearGradient>
    <linearGradient
       id="linearGradient4247">
      <stop
         id="stop4249"
         style="stop-color:#babdb6;stop-opacity:1"
         offset="0" />
      <stop
         id="stop4255"
         style="stop-color:#eeeeec;stop-opacity:1"
         offset="0.15638839" />
      <stop
         id="stop4257"
         style="stop-color:#a6a8a2;stop-opacity:1"
         offset="0.36014107" />
      <stop
         id="stop4259"
         style="stop-color:#eeeeec;stop-opacity:1"
         offset="0.60686284" />
      <stop
         id="stop4251"
         style="stop-color:#d3d7cf;stop-opacity:1"
         offset="1" />
    </linearGradient>
    <linearGradient
       id="linearGradient4201">
      <stop
         id="stop4203"
         style="stop-color:#e9b96e;stop-opacity:1"
         offset="0" />
      <stop
         id="stop4205"
         style="stop-color:#8f5902;stop-opacity:1"
         offset="1" />
    </linearGradient>
    <linearGradient
       id="linearGradient4193">
      <stop
         id="stop4195"
         style="stop-color:#8f5902;stop-opacity:1"
         offset="0" />
      <stop
         id="stop4197"
         style="stop-color:#e9b96e;stop-opacity:1"
         offset="1" />
    </linearGradient>
    <filter
       color-interpolation-filters="sRGB"
       id="filter4311">
      <feGaussianBlur
         stdDeviation="0.46903975"
         id="feGaussianBlur4313" />
    </filter>
    <linearGradient
       id="linearGradient7156">
      <stop
         id="stop7158"
         style="stop-color:#c5c5c5;stop-opacity:1"
         offset="0" />
      <stop
         id="stop7160"
         style="stop-color:#4c4c4c;stop-opacity:1"
         offset="1" />
    </linearGradient>
    <linearGradient
       id="linearGradient7175">
      <stop
         id="stop7177"
         style="stop-color:#666666;stop-opacity:1"
         offset="0" />
      <stop
         id="stop7179"
         style="stop-color:#dadada;stop-opacity:1"
         offset="1" />
    </linearGradient>
    <linearGradient
       id="linearGradient7181">
      <stop
         id="stop7183"
         style="stop-color:#888a85;stop-opacity:1"
         offset="0" />
      <stop
         id="stop7185"
         style="stop-color:#000000;stop-opacity:1"
         offset="1" />
    </linearGradient>
    <linearGradient
       id="linearGradient7205">
      <stop
         id="stop7207"
         style="stop-color:#000000;stop-opacity:1"
         offset="0" />
      <stop
         id="stop7209"
         style="stop-color:#000000;stop-opacity:0"
         offset="1" />
    </linearGradient>
    <filter
       x="-0.065654449"
       y="-0.6966666"
       width="1.1313089"
       height="2.3933332"
       color-interpolation-filters="sRGB"
       id="filter7201">
      <feGaussianBlur
         stdDeviation="0.50982073"
         id="feGaussianBlur7203" />
    </filter>
    <linearGradient
       x1="17"
       y1="4"
       x2="14"
       y2="24"
       id="linearGradient4254"
       xlink:href="#linearGradient4193"
       gradientUnits="userSpaceOnUse" />
    <linearGradient
       x1="10.454559"
       y1="11.707424"
       x2="16.674753"
       y2="14.178638"
       id="linearGradient4256"
       xlink:href="#linearGradient4201"
       gradientUnits="userSpaceOnUse" />
    <linearGradient
       x1="17.400822"
       y1="9.3693781"
       x2="19.234756"
       y2="21.919537"
       id="linearGradient4262"
       xlink:href="#linearGradient4247"
       gradientUnits="userSpaceOnUse" />
    <linearGradient
       x1="11.762648"
       y1="17.06892"
       x2="15.773345"
       y2="8.9386396"
       id="linearGradient4264"
       xlink:href="#linearGradient4261"
       gradientUnits="userSpaceOnUse" />
    <linearGradient
       x1="3.9846897"
       y1="30.146107"
       x2="25.384888"
       y2="30.146107"
       id="linearGradient4268"
       xlink:href="#linearGradient7205"
       gradientUnits="userSpaceOnUse" />
    <linearGradient
       x1="23.985788"
       y1="34.036751"
       x2="21.605001"
       y2="32.221279"
       id="linearGradient4270"
       xlink:href="#linearGradient7156"
       gradientUnits="userSpaceOnUse" />
    <linearGradient
       x1="17.059559"
       y1="6.9143314"
       x2="20.311356"
       y2="10.299485"
       id="linearGradient4272"
       xlink:href="#linearGradient7175"
       gradientUnits="userSpaceOnUse"
       spreadMethod="reflect" />
    <linearGradient
       x1="12.438972"
       y1="29.726061"
       x2="17.22176"
       y2="34.857643"
       id="linearGradient4274"
       xlink:href="#linearGradient7181"
       gradientUnits="userSpaceOnUse" />
    <linearGradient
       x1="6.5478773"
       y1="36.017017"
       x2="8.9850817"
       y2="38.35878"
       id="linearGradient4276"
       xlink:href="#linearGradient7175"
       gradientUnits="userSpaceOnUse"
       spreadMethod="reflect" />
    <filter
       x="-0.10568068"
       y="-0.13959347"
       width="1.2113614"
       height="1.2791868"
       color-interpolation-filters="sRGB"
       id="filter4499-6">
      <feGaussianBlur
         stdDeviation="0.21119997"
         id="feGaussianBlur4501-0" />
    </filter>
    <linearGradient
       id="linearGradient4225-0">
      <stop
         id="stop4227-5"
         style="stop-color:#ffffff;stop-opacity:1"
         offset="0" />
      <stop
         id="stop4229-5"
         style="stop-color:#d3d7cf;stop-opacity:1"
         offset="1" />
    </linearGradient>
    <linearGradient
       id="linearGradient4233-2">
      <stop
         id="stop4235-8"
         style="stop-color:#555753;stop-opacity:1"
         offset="0" />
      <stop
         id="stop4237-2"
         style="stop-color:#ffffff;stop-opacity:1"
         offset="1" />
    </linearGradient>
    <linearGradient
       id="linearGradient4391-7">
      <stop
         id="stop4393-5"
         style="stop-color:#555753;stop-opacity:1"
         offset="0" />
      <stop
         id="stop4395-7"
         style="stop-color:#ffffff;stop-opacity:1"
         offset="1" />
    </linearGradient>
    <linearGradient
       x1="19.058666"
       y1="16.194422"
       x2="23.846153"
       y2="19.969589"
       id="linearGradient18997"
       xlink:href="#linearGradient4225-0"
       gradientUnits="userSpaceOnUse" />
    <linearGradient
       x1="18.688009"
       y1="8.2228537"
       x2="23.29533"
       y2="11.630158"
       id="linearGradient18999"
       xlink:href="#linearGradient4233-2"
       gradientUnits="userSpaceOnUse" />
    <linearGradient
       x1="28.128845"
       y1="20.27507"
       x2="27.702856"
       y2="17.479908"
       id="linearGradient19005"
       xlink:href="#linearGradient4391-7"
       gradientUnits="userSpaceOnUse" />
  </defs>
  <metadata
     id="metadata6114">
    <rdf:RDF>
      <cc:Work
         rdf:about="">
        <dc:format>image/svg+xml</dc:format>
        <dc:type
           rdf:resource="http://purl.org/dc/dcmitype/StillImage" />
        <dc:title></dc:title>
      </cc:Work>
    </rdf:RDF>
  </metadata>
  <g
     transform="translate(0,-16)"
     id="layer1">
    <g
       id="g19030">
      <path
         d="M 6.4548023,5.3220345 21.5,4 c 0.275937,-0.024247 0.422616,0.2340289 0.5,0.5 l 4.451977,15.30149 c 0.07738,0.265971 -0.208101,0.89634 -0.479456,0.951977 l -15.116516,3.099401 c -0.268787,0.05511 -0.653717,-0.1572 -0.716094,-0.422823 L 6.0947133,6.204056 C 6.0313877,5.9343916 6.1788656,5.3462813 6.4548023,5.3220345 z"
         transform="matrix(0.88586814,0,0,0.88586814,1.5245938,20.305315)"
         id="path4209"
         style="fill:#593701;fill-opacity:1;fill-rule:nonzero;stroke:none" />
      <path
         d="m 6.5,6 15,-2 c 0.27457,-0.036609 0.432818,0.2312705 0.5,0.5 l 4,16 c 0.06718,0.26873 -0.228379,0.445676 -0.5,0.5 l -15,3 C 10.228379,24.054324 10.063444,23.769637 10,23.5 L 6,6.5 C 5.9365561,6.2303635 6.2254299,6.0366093 6.5,6 z"
         transform="matrix(0.88586814,0,0,0.88586814,1.8192488,19.627702)"
         id="rect4190"
         style="fill:url(#linearGradient4254);fill-opacity:1;fill-rule:nonzero;stroke:url(#linearGradient4256);stroke-width:0.22576724;stroke-miterlimit:4;stroke-opacity:1;stroke-dasharray:none" />
      <path
         d="M 6.3818147,6.5045407 21.5,4.1944653 c 0.166082,-0.025378 0.381741,0.066618 0.427212,0.2452409 l 3.415845,13.4185188 c 0.360863,0.863205 -4.345212,3.566923 -5.647066,4.317795 l -9.259584,1.850477 c -0.149411,0.02986 -0.296943,-0.0042 -0.335718,-0.171435 L 6.1607149,6.8577509 C 6.1218899,6.6902575 6.1932812,6.5333488 6.3818147,6.5045407 z"
         transform="matrix(0.71827802,0,0,0.71827702,4.5725847,21.252225)"
         id="path4215-0"
         style="fill:url(#linearGradient18997);fill-opacity:1;fill-rule:nonzero;stroke:url(#linearGradient18999);stroke-width:0.13922195;stroke-miterlimit:4;stroke-opacity:1;stroke-dasharray:none" />
      <g
         transform="matrix(0.88586814,0,0,0.88586814,1.6953061,5.4538114)"
         id="g4384">
        <path
           d="m 11.593154,13.374683 3.170181,-0.141636 c 0.906345,-5.0608265 4.398773,-6.7701311 6.38006,-0.542259 l 2.50603,-0.474917 c 1.447884,-0.562611 2.563215,7.114607 1.693661,9.202706 -4.971801,1.386768 -9.308223,3.158575 -13.831703,3.604005 -0.514569,-0.03797 -1.5378864,-12.026801 0.08177,-11.647899 z"
           transform="matrix(0.63117024,-0.085851,0,0.19653396,3.2263073,20.150036)"
           id="path4269"
           style="fill:#2e3436;fill-opacity:1;fill-rule:nonzero;stroke:none;filter:url(#filter4311)" />
        <path
           d="m 10.983396,15.624715 3.811221,-1.072009 c 0.468402,-6.6585864 4.462665,-7.316509 6.131136,-0.722977 l 3.220337,-0.07218 c 0.167285,-0.0037 0.386756,0.061 0.427212,0.245241 L 26,20.5 c 0.03849,0.175269 0.0083,0.349656 -0.153128,0.379558 L 11.07873,23.614417 c -0.149492,0.02768 -0.33619,0.01129 -0.335718,-0.171435 l 0.01928,-7.465057 c 4.73e-4,-0.18298 0.03442,-0.300701 0.221104,-0.35321 z"
           transform="matrix(0.60862112,-0.05760757,0,0.2596349,3.7528506,18.725567)"
           id="path4241"
           style="fill:url(#linearGradient4262);fill-opacity:1;fill-rule:nonzero;stroke:url(#linearGradient4264);stroke-width:0.2839722;stroke-miterlimit:4;stroke-dasharray:none" />
      </g>
      <path
         d="m 28.39649,16.817552 c 0.168334,0.670258 0.487012,0.537409 0.724926,0.1484 0.740669,0.598642 -3.519478,3.354367 -4.613569,3.457244 2.890918,-1.850549 3.130743,-2.531665 3.888643,-3.605644 z"
         transform="matrix(0.88159775,0,0,0.8527514,-2.8704969,19.75519)"
         id="path4399-2"
         style="opacity:0.5;fill:#000000;fill-opacity:1;fill-rule:nonzero;stroke:none;filter:url(#filter4499-6)" />
      <g
         transform="matrix(1,0,0.03923477,1,-1.2399972,0)"
         id="g5192">
        <path
           d="m 8.048956,35.071567 4.893724,0.01369 0.04952,3.609279 -4.9922249,0.138172 z"
           transform="matrix(1.8041447,-0.36029395,0.20573293,0.96639541,-10.95072,-3.2681815)"
           id="rect9407"
           style="fill:#cc0000;fill-opacity:1;fill-rule:nonzero;stroke:none" />
        <path
           d="m 7.9999998,29.832711 5.0052432,-0.168862 -0.04768,5.699896 -0.416466,0.547348 -4.5020455,-0.0032 z"
           transform="matrix(1.8041447,-0.36029395,0.20573293,0.96639541,-9.0991234,5.4293771)"
           id="rect9425"
           style="fill:#eeeeec;fill-opacity:1;fill-rule:nonzero;stroke:none" />
        <g
           transform="matrix(1.0023026,-0.20016331,0.20573293,0.96639541,-8.9830217,-10.713505)"
           id="g9427"
           style="stroke-width:0.2;stroke-miterlimit:4;stroke-dasharray:none">
          <path
             d="m 11.5,26 8,0 c 0.277,0 0.5,0.223 0.5,0.5 l 0,9 L 18.925089,36 11.5,36 C 11.223,36 11,35.777 11,35.5 l 0,-9 C 11,26.223 11.223,26 11.5,26 z"
             transform="translate(0,16)"
             id="rect9429"
             style="fill:none;stroke:#888a85;stroke-width:0.19902706;stroke-opacity:1" />
        </g>
        <text
           x="-30.009596"
           y="7.726027"
           transform="matrix(1.2002076,-0.27500055,0.27500055,1.2002076,51.101778,17.46648)"
           id="text9979"
           xml:space="preserve"
           style="font-size:4px;font-style:normal;font-variant:normal;font-weight:normal;font-stretch:normal;text-align:center;line-height:125%;letter-spacing:0px;word-spacing:0px;text-anchor:middle;fill:#000000;fill-opacity:1;stroke:none;font-family:Volvo Broad Pro;-inkscape-font-specification:Volvo Broad Pro"><tspan
             x="-30.009596"
             y="7.726027"
             id="tspan9981">21</tspan></text>
        <path
           d="m -23.455187,15.844969 3.589235,-0.887748"
           transform="matrix(0,0.59653127,-0.60615566,0,24.052652,41.57899)"
           id="path3443"
           style="fill:none;stroke:#ffffff;stroke-width:0.49889895;stroke-linecap:round;stroke-linejoin:round;stroke-miterlimit:4;stroke-opacity:1;stroke-dasharray:none" />
        <path
           d="m 15.473099,19.05759 c 0.961086,0.547984 2.118132,0.869842 3.218564,0.616362 0.378238,-0.07524 0.723904,-0.326742 0.856581,-0.696613 0.249954,-0.663532 -0.01328,-1.422512 -0.464996,-1.933671 -0.527204,-0.538775 -1.126991,-1.021437 -1.82244,-1.32512 -0.58316,-0.262933 -1.212783,-0.422339 -1.850783,-0.46877 0.290399,-0.110078 0.351594,0.325732 0.08881,0.396537 -0.28925,0.231801 -0.452977,0.557333 -0.496584,0.917047 -0.189342,0.466001 -0.11065,0.970359 -0.08754,1.456769 -0.01654,0.237063 0.05559,0.570395 -0.182039,0.715821 -0.324971,0.135972 -0.592248,-0.232129 -0.506328,-0.529973 0.01098,-0.409484 0.09514,-0.813017 0.129122,-1.220362 0.09712,-0.604227 0.235875,-1.283304 0.749755,-1.677193 0.392709,-0.253395 0.876264,-0.122416 1.306859,-0.07712 1.412285,0.217284 2.715978,1.032953 3.538239,2.20032 0.432321,0.550659 0.501198,1.430191 9.8e-5,1.961197 -0.397345,0.395164 -0.995883,0.390944 -1.514484,0.468509 -1.250593,0.107752 -2.531281,-0.149173 -3.640861,-0.736928 0.226011,-0.02225 0.452031,-0.04463 0.678035,-0.06681 z"
           transform="matrix(-0.93185567,0.16090217,0,-0.97330872,32.851202,47.68708)"
           id="path4318"
           style="fill:#cc0000;fill-opacity:1;fill-rule:nonzero;stroke:none" />
        <path
           d="m 12.088476,12.973789 a 0.236514,0.236514 0 1 1 -0.473028,0 0.236514,0.236514 0 1 1 0.473028,0 z"
           transform="translate(0,16)"
           id="path5136"
           style="fill:#ffffff;fill-opacity:1;fill-rule:nonzero;stroke:none" />
        <path
           d="m 12.088476,12.973789 a 0.236514,0.236514 0 1 1 -0.473028,0 0.236514,0.236514 0 1 1 0.473028,0 z"
           transform="translate(0.60442381,15.868604)"
           id="path5138"
           style="fill:#ffffff;fill-opacity:1;fill-rule:nonzero;stroke:none" />
        <path
           d="m 12.088476,12.973789 a 0.236514,0.236514 0 1 1 -0.473028,0 0.236514,0.236514 0 1 1 0.473028,0 z"
           transform="translate(1.2088476,15.710928)"
           id="path5140"
           style="fill:#ffffff;fill-opacity:1;fill-rule:nonzero;stroke:none" />
        <path
           d="m 12.088476,12.973789 a 0.236514,0.236514 0 1 1 -0.473028,0 0.236514,0.236514 0 1 1 0.473028,0 z"
           transform="translate(1.8921093,15.553252)"
           id="path5142"
           style="fill:#ffffff;fill-opacity:1;fill-rule:nonzero;stroke:none" />
        <path
           d="m 12.088476,12.973789 a 0.236514,0.236514 0 1 1 -0.473028,0 0.236514,0.236514 0 1 1 0.473028,0 z"
           transform="translate(0.15767578,16.604424)"
           id="path5146"
           style="fill:#ffffff;fill-opacity:1;fill-rule:nonzero;stroke:none" />
        <path
           d="m 12.088476,12.973789 a 0.236514,0.236514 0 1 1 -0.473028,0 0.236514,0.236514 0 1 1 0.473028,0 z"
           transform="translate(0.76209959,16.473028)"
           id="path5148"
           style="fill:#ffffff;fill-opacity:1;fill-rule:nonzero;stroke:none" />
        <path
           d="m 12.088476,12.973789 a 0.236514,0.236514 0 1 1 -0.473028,0 0.236514,0.236514 0 1 1 0.473028,0 z"
           transform="translate(1.3665234,16.315352)"
           id="path5150"
           style="fill:#ffffff;fill-opacity:1;fill-rule:nonzero;stroke:none" />
        <path
           d="m 12.088476,12.973789 a 0.236514,0.236514 0 1 1 -0.473028,0 0.236514,0.236514 0 1 1 0.473028,0 z"
           transform="translate(2.0497851,16.157676)"
           id="path5152"
           style="fill:#ffffff;fill-opacity:1;fill-rule:nonzero;stroke:none" />
        <path
           d="m 12.088476,12.973789 a 0.236514,0.236514 0 1 1 -0.473028,0 0.236514,0.236514 0 1 1 0.473028,0 z"
           transform="translate(0.31535156,17.208848)"
           id="path5154"
           style="fill:#ffffff;fill-opacity:1;fill-rule:nonzero;stroke:none" />
        <path
           d="m 12.088476,12.973789 a 0.236514,0.236514 0 1 1 -0.473028,0 0.236514,0.236514 0 1 1 0.473028,0 z"
           transform="translate(0.91977537,17.077452)"
           id="path5156"
           style="fill:#ffffff;fill-opacity:1;fill-rule:nonzero;stroke:none" />
        <path
           d="m 12.088476,12.973789 a 0.236514,0.236514 0 1 1 -0.473028,0 0.236514,0.236514 0 1 1 0.473028,0 z"
           transform="translate(1.5241992,16.919776)"
           id="path5158"
           style="fill:#ffffff;fill-opacity:1;fill-rule:nonzero;stroke:none" />
        <path
           d="m 12.088476,12.973789 a 0.236514,0.236514 0 1 1 -0.473028,0 0.236514,0.236514 0 1 1 0.473028,0 z"
           transform="translate(2.2074609,16.7621)"
           id="path5160"
           style="fill:#ffffff;fill-opacity:1;fill-rule:nonzero;stroke:none" />
        <path
           d="m 12.088476,12.973789 a 0.236514,0.236514 0 1 1 -0.473028,0 0.236514,0.236514 0 1 1 0.473028,0 z"
           transform="translate(-0.13856355,15.345407)"
           id="path5184"
           style="fill:#ffffff;fill-opacity:1;fill-rule:nonzero;stroke:none" />
        <path
           d="m 12.088476,12.973789 a 0.236514,0.236514 0 1 1 -0.473028,0 0.236514,0.236514 0 1 1 0.473028,0 z"
           transform="translate(0.46586026,15.214011)"
           id="path5186"
           style="fill:#ffffff;fill-opacity:1;fill-rule:nonzero;stroke:none" />
        <path
           d="m 12.088476,12.973789 a 0.236514,0.236514 0 1 1 -0.473028,0 0.236514,0.236514 0 1 1 0.473028,0 z"
           transform="translate(1.0702841,15.056335)"
           id="path5188"
           style="fill:#ffffff;fill-opacity:1;fill-rule:nonzero;stroke:none" />
        <path
           d="m 12.088476,12.973789 a 0.236514,0.236514 0 1 1 -0.473028,0 0.236514,0.236514 0 1 1 0.473028,0 z"
           transform="translate(1.7535458,14.898659)"
           id="path5190"
           style="fill:#ffffff;fill-opacity:1;fill-rule:nonzero;stroke:none" />
      </g>
      <g
         transform="translate(0.92797003,4.1552515)"
         id="g6663">
        <path
           d="m 24.003043,30.146107 a 9.3182545,0.87816018 0 1 1 -18.6365088,0 9.3182545,0.87816018 0 1 1 18.6365088,0 z"
           transform="matrix(0.29741247,0.20277075,-0.2240213,0.32858155,22.181283,16.219309)"
           id="path7131"
           style="opacity:0.6;fill:url(#linearGradient4268);fill-opacity:1;fill-rule:nonzero;stroke:none;filter:url(#filter7201)" />
        <g
           transform="translate(-0.08672168,0.05781445)"
           id="g6654">
          <path
             d="m 27.374709,26.734257 -0.499989,-1.577366 1.344717,-2.999168 1.843516,0.0071 c 0.470649,8.017349 -6.504979,10.671668 -9.869868,12.512264 -0.424353,0.457749 0.106399,0.920537 -0.06013,1.212002 -0.304395,0.247194 -0.696003,0.561829 -1.19061,0.206684 -0.385058,-1.018171 -0.430686,-1.667982 0.271799,-2.127785 3.624074,-2.026314 7.30702,-4.3308 8.16057,-7.233759 z"
             transform="matrix(0.30381563,0,0,0.30381563,16.618493,13.79484)"
             id="rect7116"
             style="fill:url(#linearGradient4270);fill-opacity:1;fill-rule:nonzero;stroke:#555753;stroke-width:0.32914698;stroke-miterlimit:4;stroke-dasharray:none" />
          <path
             d="m 31.779782,3.8278012 a 1.9827945,1.2943242 0 1 1 -3.965589,0 1.9827945,1.2943242 0 1 1 3.965589,0 z"
             transform="matrix(0.26596038,-0.26596038,0.26596038,0.26596038,16.164958,26.798501)"
             id="path7119"
             style="fill:#000000;fill-opacity:1;fill-rule:nonzero;stroke:none" />
          <path
             d="m 13.814475,13.731328 c 1.726173,-0.32561 4.505357,2.399135 4.569062,4.476222 C 22.180412,15.978112 31.585546,7.0836813 28,4 24.414454,0.91631866 16.18735,9.9024744 13.814475,13.731328 z"
             transform="matrix(0.30381563,0,0,0.30381563,16.618493,18.65589)"
             id="path7109"
             style="fill:url(#linearGradient4272);fill-opacity:1;fill-rule:nonzero;stroke:#555753;stroke-width:0.32914698;stroke-miterlimit:4;stroke-opacity:1;stroke-dasharray:none" />
          <path
             d="m 15.386087,36.19466 c -3.431887,1.379897 -4.507772,0.02896 -3.420486,-3.281499 1.087286,-3.310462 3.335406,-5.024694 5.94115,-2.424545 2.605744,2.60015 0.911225,4.326147 -2.520664,5.706044 z"
             transform="matrix(0.30381563,0,0,0.30381563,16.618493,13.79484)"
             id="path7129"
             style="fill:#ffffff;fill-opacity:1;fill-rule:nonzero;stroke:none" />
          <path
             d="m 14.817608,36.485473 c -3.519424,1.415094 -4.606728,0.09505 -3.491709,-3.299847 1.115019,-3.394901 3.074866,-4.811436 5.814011,-2.172089 2.739145,2.639347 1.197123,4.056842 -2.322302,5.471936 z"
             transform="matrix(0.30381563,0,0,0.30381563,16.618493,13.79484)"
             id="path7127"
             style="fill:url(#linearGradient4274);fill-opacity:1;fill-rule:nonzero;stroke:none" />
          <path
             d="m 14.438067,38.149775 c -1.823451,1.801021 -5.5580722,5.918595 -9.9137275,5.300539 -0.3510846,-4.248866 3.0086138,-7.493892 4.7954009,-9.35098 1.7867866,-1.857088 3.9051216,-4.881101 6.7163926,-2.132009 2.811271,2.749092 0.225383,4.381427 -1.598066,6.18245 z"
             transform="matrix(0.30381563,0,0,0.30381563,16.618493,13.79484)"
             id="path7111"
             style="fill:url(#linearGradient4276);fill-opacity:1;fill-rule:nonzero;stroke:#555753;stroke-width:0.32914698;stroke-miterlimit:4;stroke-opacity:1;stroke-dasharray:none" />
          <path
             d="m 4.5031953,42.54974 c 0.1658502,0.592019 0.4760781,0.859188 0.8909369,0.890938 L 4.4095068,44.590641 C 3.6462188,44.660881 3.3366231,44.42596 3.4424444,43.679115 z"
             transform="matrix(0.30381563,0,0,0.30381563,16.618493,13.79484)"
             id="rect7124"
             style="fill:#000000;fill-opacity:1;fill-rule:nonzero;stroke:none" />
        </g>
      </g>
      <path
         d="m 28.310495,16.853735 c 0.278669,0.425068 0.708574,0.637032 0.921968,0.297061 -0.02144,0.215742 -0.489365,1.040062 -4.564471,3.336078 1.388076,-1.020832 3.19109,-2.657236 3.642503,-3.633139 z"
         transform="matrix(0.88586814,0,0,0.88586814,-3.1137486,19.061775)"
         id="rect4388-5"
         style="fill:url(#linearGradient19005);fill-opacity:1;fill-rule:nonzero;stroke:none" />
    </g>
  </g>
</svg>
